<svg id="Layer_1" data-name="Layer 1" xmlns="http://www.w3.org/2000/svg" width="199.93" height="52.88" viewBox="0 0 199.93 52.88"><defs><style>.cls-1{fill:#fff;}.cls-2{fill:#fa0;}.cls-3{fill:#f0b45c;}.cls-4{fill:#f0c05c;}.cls-5{fill:#fbea99;}.cls-6{fill:#ffdc00;}</style></defs><title>oserian-logo-rev</title><path class="cls-1" d="M95.18,8.47a7.76,7.76,0,0,0-2.55-1.39,10.09,10.09,0,0,0-3.19-.49,10.2,10.2,0,0,0-3.19.48A7.8,7.8,0,0,0,83.7,8.46,6.36,6.36,0,0,0,82,10.64a6.54,6.54,0,0,0-.61,2.83,6.59,6.59,0,0,0,.6,2.82,6.37,6.37,0,0,0,1.68,2.19,7.7,7.7,0,0,0,2.55,1.4,10.21,10.21,0,0,0,3.22.49,10,10,0,0,0,3.21-.49,7.74,7.74,0,0,0,2.54-1.41,6.53,6.53,0,0,0,0-10Zm-1,7a4.22,4.22,0,0,1-1,1.53,4.65,4.65,0,0,1-1.62.93,6.49,6.49,0,0,1-2.1.33,6.42,6.42,0,0,1-2.09-.33A4.66,4.66,0,0,1,85.72,17a4.22,4.22,0,0,1-1.05-1.48,5.06,5.06,0,0,1-.38-2,4.91,4.91,0,0,1,.39-2A4.26,4.26,0,0,1,85.74,10a4.69,4.69,0,0,1,1.63-.93,6.57,6.57,0,0,1,2.11-.33,6.44,6.44,0,0,1,2.06.32,4.54,4.54,0,0,1,1.61.92,4.32,4.32,0,0,1,1.05,1.47,5,5,0,0,1,.39,2,5.06,5.06,0,0,1-.39,2Z" transform="translate(-0.03 -3.55)"/><path class="cls-1" d="M114.51,15a5.68,5.68,0,0,0-1.38-.56c-.53-.15-1.16-.29-1.87-.42s-1.3-.26-1.71-.35a5.53,5.53,0,0,1-.89-.27.54.54,0,0,1-.23-.14.67.67,0,0,1,0-.28.66.66,0,0,1,.47-.57,3.85,3.85,0,0,1,1.58-.28,3.68,3.68,0,0,1,1.62.28.77.77,0,0,1,.47.66v.33h2.76V13a2.49,2.49,0,0,0-1.39-2.22,7.61,7.61,0,0,0-3.62-.68,7.75,7.75,0,0,0-1.88.21,5.19,5.19,0,0,0-1.46.6,3.07,3.07,0,0,0-1,.94,2.25,2.25,0,0,0-.36,1.23,2.51,2.51,0,0,0,.28,1.23,2.26,2.26,0,0,0,.84.84,5.3,5.3,0,0,0,1.32.53c.51.14,1.11.28,1.8.41l1.71.36a5.64,5.64,0,0,1,1,.28.78.78,0,0,1,.34.22.59.59,0,0,1,.07.32.89.89,0,0,1-.49.74,3.38,3.38,0,0,1-1.76.36c-2.51,0-2.53-1-2.53-1.3V16.7h-2.84v.39a3,3,0,0,0,1.55,2.49,7.62,7.62,0,0,0,3.81.79,8.17,8.17,0,0,0,2-.23,5.48,5.48,0,0,0,1.58-.66,3.27,3.27,0,0,0,1.05-1,2.51,2.51,0,0,0,.38-1.33,2.57,2.57,0,0,0-.3-1.27A2.42,2.42,0,0,0,114.51,15Z" transform="translate(-0.03 -3.55)"/><path class="cls-1" d="M133.5,11.43a5.27,5.27,0,0,0-1.85-1,7.76,7.76,0,0,0-2.37-.34,7.43,7.43,0,0,0-2.33.35,5.51,5.51,0,0,0-1.85,1,4.55,4.55,0,0,0-1.22,1.63,5.23,5.23,0,0,0-.43,2.15,5.08,5.08,0,0,0,.45,2.17A4.67,4.67,0,0,0,125.16,19a5.49,5.49,0,0,0,1.92,1,8.28,8.28,0,0,0,2.42.34,8.76,8.76,0,0,0,1.92-.2,6.1,6.1,0,0,0,1.63-.6,4,4,0,0,0,1.21-1,3.25,3.25,0,0,0,.64-1.41l.08-.43h-3V17a.78.78,0,0,1-.19.49,1.86,1.86,0,0,1-.56.43,3.28,3.28,0,0,1-.82.29,4.46,4.46,0,0,1-.95.1,4.17,4.17,0,0,1-1.23-.17,2.76,2.76,0,0,1-1-.5,2.56,2.56,0,0,1-.66-.85,3.13,3.13,0,0,1-.27-.86h8.73v-.75a5.4,5.4,0,0,0-.41-2.15A4.5,4.5,0,0,0,133.5,11.43ZM126.44,14a2.35,2.35,0,0,1,.89-1.3,3.3,3.3,0,0,1,1.95-.57,3.2,3.2,0,0,1,1.95.58,2.48,2.48,0,0,1,.88,1.29Z" transform="translate(-0.03 -3.55)"/><path class="cls-1" d="M149,10.07a4.07,4.07,0,0,0-2.67,1V10.3h-2.8v9.84h2.8V13.48a3.12,3.12,0,0,1,2.36-1.08,4.94,4.94,0,0,1,1.17.11l.45.12V10.2H150A6.45,6.45,0,0,0,149,10.07Z" transform="translate(-0.03 -3.55)"/><rect class="cls-1" x="157.75" y="6.75" width="2.8" height="9.84"/><rect class="cls-1" x="157.75" y="3.27" width="2.8" height="2.47"/><path class="cls-1" d="M178.45,10.82a4.32,4.32,0,0,0-1.62-.59,12.28,12.28,0,0,0-2-.15,8.06,8.06,0,0,0-3.86.75,2.88,2.88,0,0,0-1.55,2.41v.39h2.82v-.34a1,1,0,0,1,.57-.86,4.17,4.17,0,0,1,1.91-.34,5.86,5.86,0,0,1,1.5.15,1.27,1.27,0,0,1,.64.36,1,1,0,0,1,.23.57v.63h-.65a13.61,13.61,0,0,0-5.41.84,3.62,3.62,0,0,0-1.46,1.12,2.69,2.69,0,0,0-.51,1.62,2.35,2.35,0,0,0,.36,1.27,3.09,3.09,0,0,0,.95,1,4.62,4.62,0,0,0,1.36.58,6.48,6.48,0,0,0,1.64.2,7.56,7.56,0,0,0,3.72-.87v.64h2.8V13.89a4.19,4.19,0,0,0-.37-1.86A3,3,0,0,0,178.45,10.82Zm-1.36,6.41a3.55,3.55,0,0,1-1.27.79,5.17,5.17,0,0,1-1.84.33,3.3,3.3,0,0,1-1.59-.32.82.82,0,0,1-.48-.76c0-.49.29-.84.9-1.1a8.73,8.73,0,0,1,3.22-.45h1.06Z" transform="translate(-0.03 -3.55)"/><path class="cls-1" d="M198.13,11a4.78,4.78,0,0,0-3.18-.93,5.34,5.34,0,0,0-3.11,1V10.3H189v9.84h2.8V13.39a4.31,4.31,0,0,1,2.8-1.25,2,2,0,0,1,1.4.38,1.86,1.86,0,0,1,.39,1.36v6.26h2.81V13.81A3.51,3.51,0,0,0,198.13,11Z" transform="translate(-0.03 -3.55)"/><path class="cls-2" d="M97.64,37.12h-1l-2.39.11a20.31,20.31,0,0,0-2.35.2l-2.46.36c-.73.11-1.47.26-2.19.43.37-.65.77-1.3,1.18-2s.93-1.43,1.39-2.12c.76-1.11,1.55-2.2,2.36-3.24s1.66-2,2.57-3c.58-.22,1.15-.42,1.72-.59s1.17-.36,1.75-.56c1.35-.37,2.72-.7,4.06-1a35.74,35.74,0,0,1,4.15-.58c.67-.06,1.36-.09,2-.09a16.71,16.71,0,0,1,2.09.09,10.44,10.44,0,0,1,1.69.32,6.84,6.84,0,0,0,1.82.24h0a.88.88,0,0,0,.62-.28.72.72,0,0,0,.15-.53,1,1,0,0,0-.71-.87,6.94,6.94,0,0,0-2.09-.37l-2,.06h0a34.63,34.63,0,0,0-8.08,1c-.94.2-1.9.43-2.84.67L96.62,26c.46-.44.94-.87,1.43-1.27a18.73,18.73,0,0,1,1.89-1.38l.62-.39a6.07,6.07,0,0,1,.74-.38,2.66,2.66,0,0,1,.75-.21,1.48,1.48,0,0,1,.68.08.84.84,0,0,0,1.07-.22.79.79,0,0,0,0-1.06h0a1.31,1.31,0,0,0-.6-.4,1.94,1.94,0,0,0-.72-.09,4.59,4.59,0,0,0-.75.11l-.65.18h0a12.47,12.47,0,0,0-3.77,2.53c-1.12,1.09-2.17,2.19-3.11,3.27-1.43.43-2.86.89-4.22,1.38l-4.2,1.47h0a.76.76,0,0,0-.51.48.94.94,0,0,0,.47,1.12.78.78,0,0,0,.73,0l1.88-.8c.64-.28,1.3-.55,2-.8l2.15-.85c-.76.94-1.51,1.91-2.21,2.88S88.73,33.77,88,34.87l-1.24,2c-.41.64-.8,1.29-1.18,1.93a24,24,0,0,0-2.85,1h0a.74.74,0,0,0-.36.5.58.58,0,0,0,.31.58.72.72,0,0,0,.61.13,2.4,2.4,0,0,0,.62-.23l.58-.33.25-.13c-.25.47-.48,1-.7,1.45s-.49,1.13-.73,1.71a19.42,19.42,0,0,0-.76,2.37,6.36,6.36,0,0,0-.13,2.49,5,5,0,0,0,.18.69,3.4,3.4,0,0,0,.36.78,1.62,1.62,0,0,0,.57.55.69.69,0,0,0,.34.09,1,1,0,0,0,.47-.13h0c.36-.26.5-.55.39-.85a3.51,3.51,0,0,0-.36-.76h0A1.41,1.41,0,0,1,84,48a3.82,3.82,0,0,1,0-1h0a7.3,7.3,0,0,1,.31-2.09c.2-.68.44-1.36.7-2l.69-1.62a10.65,10.65,0,0,1,.79-1.53,21.9,21.9,0,0,1,2.69-.55h0c.82-.14,1.64-.25,2.45-.32s1.64-.11,2.49-.11h2.46a5.75,5.75,0,0,0,.8.13,2.48,2.48,0,0,0,.83,0h0a.89.89,0,0,0,.55-.55.79.79,0,0,0-.15-.8A1.1,1.1,0,0,0,97.64,37.12Z" transform="translate(-0.03 -3.55)"/><path class="cls-2" d="M199.71,40.78a.61.61,0,0,0-.66,0l-3.54,1.82-.91.46a1.34,1.34,0,0,0,.06-.89,2,2,0,0,0-1.09-1.08,2.37,2.37,0,0,0-.65-.21l-1-.24a2.73,2.73,0,0,1-.79-.33.32.32,0,0,1-.15-.17A.2.2,0,0,1,191,40h0a.9.9,0,0,1,.5-.24,4.2,4.2,0,0,0,.79-.29A2,2,0,0,0,193,39c.18-.2.17-.46,0-.8h0a1,1,0,0,0-.47-.31.92.92,0,0,0-.61,0,5.9,5.9,0,0,0-1.79.46c-.68.27-1.36.57-2,.89s-1.27.63-1.82.93l-.47.26-1,.47a2.36,2.36,0,0,1-.38.19h0c-.39.17-.77.36-1.13.54s-.73.35-1.08.49c-1.05.4-1.9.69-2.53.86s-1,.11-1.07,0h0a.86.86,0,0,1-.3-.74,3.63,3.63,0,0,1,.22-1A8.08,8.08,0,0,1,179,40.1c.19-.36.36-.65.5-.88a1.11,1.11,0,0,0,.18-1.14c-.17-.34-.56-.41-1.14-.22h0a13.09,13.09,0,0,1-1.8.88,4.06,4.06,0,0,1-1.9.32h0a1.58,1.58,0,0,1-.54-.08,3,3,0,0,0,.8-.79,1.13,1.13,0,0,0,.19-1.09,1,1,0,0,0-.88-.67h0a1.87,1.87,0,0,0-1.61.73,2.18,2.18,0,0,0-.54,1.57,21.06,21.06,0,0,1-1.91,1l-1.83,1-1.1.57-.54.25a19.5,19.5,0,0,1-2,.75,19.92,19.92,0,0,1-2.07.54,13.53,13.53,0,0,1-1.65.17,5.34,5.34,0,0,1-1.72-.19,3.81,3.81,0,0,1-1.42-.74,2.28,2.28,0,0,1-.74-1.29h0a5.88,5.88,0,0,0,2-.15,6.57,6.57,0,0,0,1.78-.73l.69-.41a5.36,5.36,0,0,0,.86-.64,2.14,2.14,0,0,0,.56-.77.77.77,0,0,0-.17-.84,1.87,1.87,0,0,0-1.33-.69,6.12,6.12,0,0,0-1.46,0h0a6.92,6.92,0,0,0-2.29.86A4.6,4.6,0,0,0,156.31,39a15,15,0,0,0-1.73.81l-.91.49-.84.38a14.13,14.13,0,0,1-2.15.79,11.63,11.63,0,0,1-2.28.41h0a6.41,6.41,0,0,1-1.11.08,1.35,1.35,0,0,1-.83-.24l.51-.49c.22-.22.58-.61.87-.93a8,8,0,0,0,.78-1,1.14,1.14,0,0,0,.31-.79h0a1.26,1.26,0,0,0-.38-.47,1,1,0,0,0-.64-.24,2.42,2.42,0,0,0-1.73.65A4.77,4.77,0,0,0,145,39.89h0a2.55,2.55,0,0,0-.2,1.69,17.63,17.63,0,0,1-1.7,1,2.58,2.58,0,0,1-1.49.29h0a.46.46,0,0,1-.48-.44s0,0,0,0a3.61,3.61,0,0,1,0-.93l.92-.76a4.06,4.06,0,0,0,.79-.88.79.79,0,0,0,.17-.93.83.83,0,0,0-.83-.54,1.24,1.24,0,0,0-.72.24,3,3,0,0,0-.6.56,5.12,5.12,0,0,0-.47.68,6.92,6.92,0,0,0-.33.64,11.73,11.73,0,0,1-2.75,2.17,7.29,7.29,0,0,1-3.14,1,2.77,2.77,0,0,1,.42-.85,9.27,9.27,0,0,0,.55-.85,10.29,10.29,0,0,1,1-1.13c.35-.36.71-.7,1.06-1s.54-.44.9-.71a1.08,1.08,0,0,0,.51-1.07h0a.78.78,0,0,0-.86-.64,1.88,1.88,0,0,0-1,.32,5.69,5.69,0,0,1-1.65.85c-.62.2-1.22.42-1.78.65s-1.17.47-1.71.72l-1.43.62-.88.33-.91.41a2.93,2.93,0,0,1-.64.25h0a7,7,0,0,1-1.57.26,2.55,2.55,0,0,1-1.49-.37,2.17,2.17,0,0,1-.46-.35,4.66,4.66,0,0,0,.64-1.48,1.45,1.45,0,0,0-.43-1.44h0a1,1,0,0,0-.56-.2.74.74,0,0,0-.32-.67h0a1.75,1.75,0,0,0-1.36-.18,5.75,5.75,0,0,0-1.3.48l-1.83.52a18.34,18.34,0,0,0-1.85.61l-4.53,1.92a1.39,1.39,0,0,0-.31.12l-.13.07-.49.21-.2.06h0c-.82.35-1.67.66-2.52,1a20.5,20.5,0,0,1-2.6.69h0a1.18,1.18,0,0,1-.36,0l-.67.07-.79.11a3.14,3.14,0,0,1,0-1.06,6.86,6.86,0,0,1,.31-1.26,10.29,10.29,0,0,1,.5-1.22c.19-.38.35-.74.5-1.08a41.39,41.39,0,0,0,4.7-4,35.11,35.11,0,0,0,4-4.62c.15-.2.34-.44.57-.71a9.88,9.88,0,0,0,.67-.87,3.92,3.92,0,0,0,.48-.93,1.46,1.46,0,0,0,0-1,.93.93,0,0,0-1.09-.69,3.86,3.86,0,0,0-1.23.38A6.74,6.74,0,0,0,112,27.51c-.51.59-1,1.18-1.44,1.76s-1.06,1.35-1.55,2l-1.5,2h0L106,35.51a23.43,23.43,0,0,0-1.37,2.32c-.84.57-1.7,1.1-2.54,1.58a28.47,28.47,0,0,1-2.65,1.34h0q-.35.17-.39.39a.46.46,0,0,0,.11.39.8.8,0,0,0,.83.32h0a34.87,34.87,0,0,0,3.52-1.94,14.88,14.88,0,0,0-.66,1.77,5.52,5.52,0,0,0-.18,1,2.55,2.55,0,0,0,.12,1,1.56,1.56,0,0,0,.59.79,1.41,1.41,0,0,0,.83.23h.3a4.79,4.79,0,0,0,1.49-.33c.48-.19,1-.37,1.46-.54L112.67,42h0l.12-.06h.15a2.89,2.89,0,0,0,.53-.2l.54-.28.44-.24c.65-.32,1.3-.62,1.94-.91a16.53,16.53,0,0,1,1.54-.62l-.51.5a9.62,9.62,0,0,0-.94,1.09,5.67,5.67,0,0,0-.77,1.37A2.28,2.28,0,0,0,115.6,44a1.72,1.72,0,0,0,1.1,1.09,3,3,0,0,0,1.2.24h.36a5.25,5.25,0,0,0,1.56-.42,8.07,8.07,0,0,0,1.41-.81,14.17,14.17,0,0,0,1.2-1l.91-.93a2.82,2.82,0,0,0,1.12.63,5,5,0,0,0,1.4.2,8.35,8.35,0,0,0,1.46-.13,10.42,10.42,0,0,0,1.41-.35l.27-.09.27-.09.78-.28.73-.37h.05l.6-.31.76-.37,1.46-.67a8.68,8.68,0,0,1,1-.41l.79-.26-.59.73-.8,1c-.32.37-.64.76-1,1.15a4.09,4.09,0,0,0-.7,1.31h0a1.33,1.33,0,0,0,.08,1,1.25,1.25,0,0,0,.6.54,2.13,2.13,0,0,0,.84.16,2.81,2.81,0,0,0,.87-.13,7.92,7.92,0,0,0,2.22-1L139,43l.82-.58a4.15,4.15,0,0,0,.31,1.44,1.42,1.42,0,0,0,1.37.84,3.4,3.4,0,0,0,2.12-.56,13.09,13.09,0,0,0,1.87-1.44,1.68,1.68,0,0,0,.91.4,7.1,7.1,0,0,0,2.35,0,13.72,13.72,0,0,0,2.25-.52l1.17-.32a4.63,4.63,0,0,0,.78-.27,4,4,0,0,0,.66-.26,3.16,3.16,0,0,1,.56-.31h0L155,41a8,8,0,0,1,.76-.41,1.55,1.55,0,0,0,0,.49,3,3,0,0,0,.16.7,3.53,3.53,0,0,0,.91,1.6,4.55,4.55,0,0,0,1.43,1,5.43,5.43,0,0,0,1.72.4h.49a6.93,6.93,0,0,0,1.33-.13h0a38.66,38.66,0,0,0,4-1.3l2.22-1c.2-.08.43-.17.7-.26a7.4,7.4,0,0,0,1-.59h.05l.82-.48,1-.56,1.16-.61a1.63,1.63,0,0,0,1.1.53,7.78,7.78,0,0,0,1.55,0,9.26,9.26,0,0,0,1.5-.24l.74-.18-.31,1.27c-.06.24-.13.47-.2.71a6.75,6.75,0,0,0-.18.75,2.57,2.57,0,0,0,0,.77,1.5,1.5,0,0,0,.28.72,1.38,1.38,0,0,0,1.19.61,4.59,4.59,0,0,0,1.49-.27,10.42,10.42,0,0,0,1.5-.66l1.21-.65,1.78-.79.14,0,.32-.11a3.27,3.27,0,0,0,.53-.22l.12-.07a6.7,6.7,0,0,0,1-.48,8.37,8.37,0,0,1,.93-.62l1.17-.5,1.13-.47a1.66,1.66,0,0,0,0,.55,1.38,1.38,0,0,0,.5.75h0a2.49,2.49,0,0,0,1,.39,12.22,12.22,0,0,1,1.34.36,1.77,1.77,0,0,1,.86.53c.14.18,0,.46-.3.82h0a2.6,2.6,0,0,1-.7.6,5.33,5.33,0,0,1-1.1.53,3.6,3.6,0,0,1-1.56.06c-.41-.09-.64-.39-.69-.93a.86.86,0,0,0-.33-.64.78.78,0,0,0-.63-.12,1.09,1.09,0,0,0-.59.33.85.85,0,0,0-.2.7A1.92,1.92,0,0,0,188,45.3a2.42,2.42,0,0,0,1.64.63,6.51,6.51,0,0,0,2.45-.48c.78-.32,1.61-.68,2.46-1.08h0c.71-.38,1.43-.75,2.14-1.1s1.43-.7,2.14-1l.68-.28a.63.63,0,0,0,.44-.59A.64.64,0,0,0,199.71,40.78ZM158,38.86a3.33,3.33,0,0,1,.88-.65,3.45,3.45,0,0,1,1.07-.34h.33a2.49,2.49,0,0,1,.68.1,6.44,6.44,0,0,1-1.55,1,5.15,5.15,0,0,1-1.85.5A2.75,2.75,0,0,1,158,38.86ZM107.81,35c.29-.44.6-.9.93-1.36.59-.77,1.18-1.54,1.77-2.27a23.54,23.54,0,0,1,1.89-2.09l.91-.86a4.85,4.85,0,0,1,.9-.67,3.73,3.73,0,0,1-.2.4,5.77,5.77,0,0,0-.27.54,14.63,14.63,0,0,1-1.49,2.06h0a33.85,33.85,0,0,1-3.79,4.1l-.82.71-.38.32C107.43,35.58,107.62,35.28,107.81,35Zm14.44,4.94a3.74,3.74,0,0,0,.23,1.2,3,3,0,0,1-.49.63l-.61.6h-.05a4.38,4.38,0,0,1-1.84,1,5.49,5.49,0,0,1-2.15.08.62.62,0,0,1-.42-.18.31.31,0,0,1,0-.24,2.29,2.29,0,0,1,.4-.93,7.31,7.31,0,0,1,.81-1l.64-.64a7.58,7.58,0,0,1,1.76-1.06,6.57,6.57,0,0,1,2-.49A1.88,1.88,0,0,0,122.25,39.94Z" transform="translate(-0.03 -3.55)"/><path class="cls-2" d="M62.92,22.9c0-9.92-9.57-18-21.38-18s-21.38,8-21.38,18,9.57,18,21.38,18,21.38-8,21.38-18" transform="translate(-0.03 -3.55)"/><path class="cls-3" d="M42.29,5.37l.48-.06a.18.18,0,0,1,0,.1h-.21l-.25-.06" transform="translate(-0.03 -3.55)"/><path class="cls-4" d="M42.54,5.42h0M46,5.69a1.12,1.12,0,0,0-.51-.1V5.53c.26,0,.51,0,.53-.12a8.38,8.38,0,0,0,.9.22.33.33,0,0,1,0,.19l-1-.15" transform="translate(-0.03 -3.55)"/><path class="cls-4" d="M42.15,5.32h.62l-.48.06h-.14" transform="translate(-0.03 -3.55)"/><path class="cls-5" d="M37,4.24a9.75,9.75,0,0,1,1,.22C37.86,4.3,37.74,4,37,4.24Z" transform="translate(-0.03 -3.55)"/><path class="cls-5" d="M38.34,4.54h.07l-.33-.08A.42.42,0,0,0,38.34,4.54Z" transform="translate(-0.03 -3.55)"/><path class="cls-5" d="M32.72,5.78c-.41.47,1.09-.2,1,.31-.69.06-1.23.69-1.56.43.34.3-.68.54-.51.61h0l-.24.12a.5.5,0,0,1-.2.25h0a4.15,4.15,0,0,1-.49.32h0a3.63,3.63,0,0,0-.71.47.41.41,0,0,1,.25-.42h0q-.73.42-1.41.9a6.37,6.37,0,0,1,.74-.24c.89-.47,1.77-.92,2.59-1.4h0c-.82.48-1.7.93-2.59,1.4.65-.17,1.36-.28,2-.41L31.75,8l-.39-.27C32.63,7.6,31.7,7.37,33,7c0,.08-.12.3.16.19,1-.43-.06-.42.56-.79,1.52.25.44-.72,2.22-.83l-.08-.06A14.73,14.73,0,0,0,32.72,5.78ZM31.18,7.62a1,1,0,0,1-.36.18A1,1,0,0,0,31.18,7.62Zm0,0Zm.09-.08h0Zm.4-.38Zm0,0Zm0,0Zm0,0Z" transform="translate(-0.03 -3.55)"/><path class="cls-5" d="M27.78,9.53A16.85,16.85,0,0,0,25.69,11a.31.31,0,0,1,.33.28,4.8,4.8,0,0,1,.94-.8,4.84,4.84,0,0,1,2-1.17C28.64,9.25,28.09,9.67,27.78,9.53Z" transform="translate(-0.03 -3.55)"/><path class="cls-5" d="M41.25,4.55Z" transform="translate(-0.03 -3.55)"/><path class="cls-5" d="M24.44,12.5v.07a.2.2,0,0,1,.11.23,15.91,15.91,0,0,0,1.3-1.25C25.3,11.67,25.09,11.49,24.44,12.5Z" transform="translate(-0.03 -3.55)"/><path class="cls-5" d="M22.47,16.26l.12.1a1,1,0,0,0,0-.17Z" transform="translate(-0.03 -3.55)"/><path class="cls-5" d="M36.87,5.07a.49.49,0,0,0,.23.05l.16-.05Z" transform="translate(-0.03 -3.55)"/><path class="cls-5" d="M43,5.21c.16-.17.84-.14,1.48-.15A3.87,3.87,0,0,0,44,4.83C43.52,4.81,42.91,5,43,5.21Z" transform="translate(-0.03 -3.55)"/><path class="cls-5" d="M42.33,4.49h0a5,5,0,0,0-.74,0c-.2.22-.73.49-.69.73a1.93,1.93,0,0,1,1.21.1h.62C42.66,5,41.68,4.9,42.33,4.49Z" transform="translate(-0.03 -3.55)"/><path class="cls-5" d="M38.59,4l.44.28a1.74,1.74,0,0,1-.62.22h.16a11.25,11.25,0,0,1,1.11-.36A1.49,1.49,0,0,0,38.59,4Z" transform="translate(-0.03 -3.55)"/><path class="cls-5" d="M39.17,4.72H40c-.12-.14-.2-.29-.32-.42C39.39,4.34,39,4.45,39.17,4.72Z" transform="translate(-0.03 -3.55)"/><path class="cls-5" d="M44.59,3.85h.11c-.71.16-1.61-.43-2.09,0,.28.3,1-.2,1,.39-.54-.07-1.09-.11-1.64-.15.5.35,1.64.13,2.26.3.45,0-.89-.18-.65-.53a2.91,2.91,0,0,1,2.13,1A2.91,2.91,0,0,1,47,4.73a.38.38,0,0,0,0-.17A8.78,8.78,0,0,0,44.59,3.85Z" transform="translate(-0.03 -3.55)"/><path class="cls-5" d="M29.9,8a1.28,1.28,0,0,1,.35-.09,4.66,4.66,0,0,0,.85-.41h0a.8.8,0,0,0,.14-.15l-.24.1h0a1.06,1.06,0,0,0-.75,0C30.52,7.63,30.21,7.78,29.9,8Z" transform="translate(-0.03 -3.55)"/><path class="cls-5" d="M45.36,3.79h.37c.18,0,.31,0,.11-.1L45,3.55C45,3.7,45.25,3.74,45.36,3.79Z" transform="translate(-0.03 -3.55)"/><path class="cls-6" d="M22.19,18v0Z" transform="translate(-0.03 -3.55)"/><path class="cls-6" d="M41,42.1c-.49,0,1,.13.72.49A3.4,3.4,0,0,1,39,41.41c-.1-.11-.11-.18-.06-.24a12.18,12.18,0,0,1-5.33-1.55c-.58-.32-1.24-.69-1.9-1.08.12.18-.11.18,0,.3a2,2,0,0,0,.26.23.83.83,0,0,1-.26-.23c-.15-.16-.25-.33-.19-.44-.92-.54-1.82-1.1-2.49-1.57-1.19-.85-1.77-1.18-.53.06a23,23,0,0,1-2.65-3h0l-.27-.38h0q-.2-.29-.37-.58a1.36,1.36,0,0,0,.33.55,1.36,1.36,0,0,1-.33-.55l-.3-.52a8.22,8.22,0,0,1-.67-1.57h0V30.7h-.1c-.36-.35-.72-.74-.86-.56.14-.18.49.21.86.56h.1a4.84,4.84,0,0,1-.13-1.93v-.13h0q-.07-.26-.13-.53l-.07-.33a2,2,0,0,0,0,.3,2,2,0,0,1,0-.3V27.6c-.14-.08-.2-.31-.23-.6,0,.3.08.53.23.6h0a12.86,12.86,0,0,1-.19-2.23l-.11-.09h0l-.1-.09,0,.08,0-.08L23.3,25h0a1.71,1.71,0,0,1-.44-1.25c-.41-1.1-.74.72-.78-.91q-.07.28-.12.56-.07-.59-.09-1.19h0a1.33,1.33,0,0,0,0-.21v.09q0-.64,0-1.29v-.24a.45.45,0,0,1-.23.23v-.24a4,4,0,0,0-.16.91v.83c-.18-.34-.37-1-.62-.39h0v0h-.07v-.31a.06.06,0,0,1-.11,0v-.77a7.21,7.21,0,0,0-.15.71.5.5,0,0,0,.24.31.5.5,0,0,1-.24-.31h0a1.48,1.48,0,0,1,.16-.83,3.46,3.46,0,0,0,1-1.72,1.08,1.08,0,0,0,.08.2,4.42,4.42,0,0,1,.38-1.1c0-.17.06-.26.09-.23a14.65,14.65,0,0,1,.47-1.45l-.1-.09a1.34,1.34,0,0,1-.23.62c-.28-.75-1.17.84-1.38.72a4.52,4.52,0,0,1-.83,1.55,9.28,9.28,0,0,0-.2,2.19V20.7c-.3.3-.4-.14-.64-.08a17.41,17.41,0,0,0-.39,3.63c.15-.17.19-.7.39-.53.28.92-.2.83.21,1.67a1.36,1.36,0,0,1,.14-.43c-.07.09-.07.22-.14,0s-.06-.45.08-.48a.75.75,0,0,1,.23.43c.14-.08.27-.07.06-.87h0c.21.8.08.79-.06.87a1.89,1.89,0,0,1,0,.2h0a2,2,0,0,1-.06.84,2.19,2.19,0,0,0,.12.31v0h0a.29.29,0,0,1-.07.22l.1-.17h0l.11-.19-.11.19c.07.12.13.17.19.17s.17-.1.23-.18h0c.06.29.07.57-.1.61a.54.54,0,0,0,.25.07h0a1.23,1.23,0,0,1,0-.56,1.23,1.23,0,0,0,0,.56h0v.09h0l.07.19h0l.19.43a4.32,4.32,0,0,1-.12-.49h0a4.32,4.32,0,0,0,.12.49h0a.87.87,0,0,0,.14.3l-.06-.12.06.12a.18.18,0,0,0,.15.07A.18.18,0,0,1,20.9,28a2.64,2.64,0,0,1,.26.74,2.38,2.38,0,0,1,.11-.53l.21.21c-.08-.31-.16-.37-.25-.37.09,0,.17.06.25.37h0a2.27,2.27,0,0,1,.29.45h0c-.5.45.08,2.13,0,2.76h0c.14.47.29.93.47,1.39-.1-.28.24-.13.54.17v-.06c.35.3.39-.89,1,.3.07.22.15.44.23.67,0-.09.13-.07.2-.06.1.23.19.46.3.68,1.23.32,1.11,1.79,2.35,2.38-.33-.19-.71-.61-.37-.62a1.19,1.19,0,0,1,.55.61V37a22.25,22.25,0,0,0,1.68,1.84c0-.32-1.13-1.13-.46-1,.49-.08.84.61,1.2.86-.15.15-.93-.14-.3.39.14,0,.91.19.68-.12.6.61,1.62,1.27,2.17,1.9.26,0,0-.21-.16-.29h-.08c-.41-.32.15-.49-.82-.75.23-.62,1.34.47,2.18.69a10.94,10.94,0,0,1-1-1,11.62,11.62,0,0,1,3.61,1,16,16,0,0,0,3.57,1.15c-.68.12-1.19-.18-1.21.35a9.81,9.81,0,0,0,2.6.58h-.12a6.42,6.42,0,0,1,1.62.07.83.83,0,0,0,.6-.2c-.31-.29-1,.25-1-.33.59,0,1.17,0,1.76,0A18.47,18.47,0,0,0,41,42.1Zm-21.18-17h0a3.65,3.65,0,0,0,.09.56,1.44,1.44,0,0,0,0-.52Zm1.09-3c.1.17.1.47-.17,1.08h0c.32-.62.32-.91.26-1.09Zm-.3-.12v.13h0l0-.11Zm0-.09h0a1.47,1.47,0,0,0-.14,1,1.47,1.47,0,0,1,.18-1Zm-.36,0Zm-.3,0Zm0-.45Zm0,.65v.23a.54.54,0,0,1,0-.23Zm-.09.84h0c.07-.16.14-.35.23-.52-.09.17-.19.36-.26.52Zm.26-.93h.08a.14.14,0,0,1-.11,0Zm.14,0Zm0,3.85h0l0,.18Zm.15.48s.09-.08.13,0-.12,0-.17,0Zm.2.69Zm0,.28Zm.56-3.6c-.26.62-.93.17-.9,1.63h0c0-1.47.64-1,.9-1.63v0Zm.16-.87v-.56h0a3.61,3.61,0,0,1,0,.57Zm2.2,7.9Zm0,.32h0l-.09-.1Zm-.43-6h0a1.67,1.67,0,0,0,0,.17A1.66,1.66,0,0,1,23.1,25ZM23,29a1.07,1.07,0,0,0-.27,0A1.07,1.07,0,0,1,23,29Zm-.35-.46c.08.14.17.26,0,.37h0c.16-.09.07-.2,0-.35Zm.11,0a2.91,2.91,0,0,1-.2-.23h0a1,1,0,0,0,.19.28Zm-1-4.73Zm-.34-.26a.43.43,0,0,0,.2.16.43.43,0,0,1-.22-.11Zm.08,3.91h0l.25-.07Zm.21.43h0v0Zm-.09.47c.09,0,.23.15.35.36h0c-.15-.16-.29-.32-.37-.32Zm.66.84h0a2.45,2.45,0,0,1-.28-.43h0v0h0a2.44,2.44,0,0,0,.25.48Zm-.3,0a6.6,6.6,0,0,1,.19.68,6.63,6.63,0,0,0-.17-.67Zm.25.9h0l.13-.29h0Zm0-2.1h0c-.16.14-.39.25-.38.53,0-.27.22-.39.38-.53a.35.35,0,0,1,.16-.32h0A.35.35,0,0,0,22.26,28Zm.4.94a1.46,1.46,0,0,1-.27-.38,1.46,1.46,0,0,0,.28.36ZM22.47,30c.44.65,1.06.8,1.22,1.39C23.53,30.84,22.9,30.68,22.47,30Zm1.22,2h0l.06-.2h0Zm.34-.28h0c0-.24-.22-.87,0-1-.23.16,0,.8,0,1Zm.77,1.54c-.11,0-.09-.15,0-.21h0a.77.77,0,0,1,0,.25Zm.37-.19h0c-.06.26.12.43.39.61-.27-.15-.45-.32-.39-.58ZM30,38.46c-.44-.32-.86-.67-1.27-1,.41.33.83.65,1.26,1V38l.11.41-.11,0Z" transform="translate(-0.03 -3.55)"/><path class="cls-6" d="M24,34.13Z" transform="translate(-0.03 -3.55)"/><path class="cls-6" d="M22.64,14.79h0c-.5.16.1-.34.24-.59a.81.81,0,0,0-.06.35c.25,0,0,.5.11.63a.33.33,0,0,1,.25-.08h0l-.12.11h.09c-.72.46-.57.64-.54,1h0a1,1,0,0,1,0,.17l.26.21c-.09-.38.28-1.31.6-1.34.32.26-.31,1-.42,1.45.85-1.7,1.5-1.34,2-2.79L24.8,14c.24-1,1.34-1.46,1.88-2.06-.09.24,0,.39.13.36,1-1.6,2.59-2.55,4.32-3.76l.77.11-.12-.33c.68-.46.55,0,.74.09h0l-.07-.06h.2l.6-.35c0-.14,0-.27.35-.34-.44-.24-1.25.38-1.18-.2a13.36,13.36,0,0,1,3-.46,28.13,28.13,0,0,1,5-1.44.17.17,0,0,1,.06-.13h.69l1-.12a1.93,1.93,0,0,0-1.21-.1c0-.24.49-.51.69-.73h0c.17-.18.11-.34-.68-.41l-.23.25a1.52,1.52,0,0,1,.67-.11c.33.15.11.23-.11.31h0L40.44,5h0l.79-.44a.62.62,0,0,0-.22.1H39.13c-.12-.26.22-.38.55-.46h0a1.72,1.72,0,0,0,.48-.14l-.51.11h0a11.26,11.26,0,0,0-1.11.36h0c-.44.16-.88.34-1.31.49h0l-.16.05h0a5.28,5.28,0,0,1-1.35.29l.09.07a8.46,8.46,0,0,0,1.64-.23h0a8.46,8.46,0,0,1-1.64.23l.08.06c-1.78.11-.69,1.08-2.22.83-.62.38.41.36-.56.79C32.86,7.29,33,7.06,33,7c-1.28.39-.35.62-1.62.77l.45.32c-.71.16-1.53.27-2.27.47s-1.18.64-1.76,1c.31.14.86-.28,1.25-.22a4.84,4.84,0,0,0-2,1.13A2.23,2.23,0,0,1,28.18,10c-.21.55-1.2.51-1.19.75.29-.09.69-.43.89-.22-.29.68-.86.61-1.25.91a.4.4,0,0,1,.08-.29,2.63,2.63,0,0,1-.87.38,15.9,15.9,0,0,1-1.3,1.25.2.2,0,0,0-.11-.23h0c-.26-.12-.87.14-.5-.63.55.11.63-.48,1.07-.86-.71,0-1.29.79-1.71,1.6s-.72,1.58-1.19,1.46l.19.41c-.18.19-.76.63-.63.17A18.05,18.05,0,0,0,21,16.5C21.5,16.06,22.51,15.33,22.64,14.79ZM39.89,5h0Zm0,0,.27.12c-.46.45-1.25.23-2.06.05.6,0,1.2-.09,1.8-.17ZM23,15.59l.23-.49h0a.31.31,0,0,0,.19-.1A4.51,4.51,0,0,0,23,15.59Zm1.5-2.72Zm.09,0h0a.52.52,0,0,1,.44,0c-.39.2-.64,1.48-1.22,1.59.15-.29.31-.57.47-.86a11.56,11.56,0,0,0-.8,1,15.89,15.89,0,0,1,1.15-1.73Zm-.07,0Zm-.84.78a.92.92,0,0,1,.47-.41h0a1.42,1.42,0,0,0-.47.41,3.73,3.73,0,0,1-.5,1,3,3,0,0,1,.54-1Z" transform="translate(-0.03 -3.55)"/><path class="cls-6" d="M19.81,25c-.1.06-.21.16-.21.67l.24-.46A1.83,1.83,0,0,0,19.81,25Z" transform="translate(-0.03 -3.55)"/><path class="cls-6" d="M20.61,27.31l-.07-.19a1.35,1.35,0,0,0,.09.61A1.53,1.53,0,0,1,20.61,27.31Z" transform="translate(-0.03 -3.55)"/><path class="cls-6" d="M27.91,9.45q.43-.34.89-.67a3,3,0,0,0-1.09.7h.07Z" transform="translate(-0.03 -3.55)"/><path class="cls-6" d="M58,9.3a3.71,3.71,0,0,0,.4.31A1.26,1.26,0,0,0,58,9.3Z" transform="translate(-0.03 -3.55)"/><path class="cls-6" d="M58.6,35.93a1.57,1.57,0,0,1-.81.53c.64-.09.85.13,1.63-.48C59.22,36,57.74,37,58.6,35.93Z" transform="translate(-0.03 -3.55)"/><path class="cls-6" d="M58.6,35.93l.08-.09Z" transform="translate(-0.03 -3.55)"/><path class="cls-6" d="M56.1,37.57a.81.81,0,0,0,.32-.28A1.59,1.59,0,0,1,56.1,37.57Z" transform="translate(-0.03 -3.55)"/><path class="cls-6" d="M56.1,37.57c-.44.21-1,.08-1.44.55a1.41,1.41,0,0,0,1.09,0C55.46,38,55.79,37.79,56.1,37.57Z" transform="translate(-0.03 -3.55)"/><path class="cls-6" d="M55.73,7.85q.58.41,1.14.86C56,8,56.76,8.28,55.73,7.85Z" transform="translate(-0.03 -3.55)"/><path class="cls-6" d="M31.55,38.34l0,.06.24.14A1,1,0,0,0,31.55,38.34Z" transform="translate(-0.03 -3.55)"/><path class="cls-6" d="M28.5,35c-.11.22.48.54.78.69C29,35.45,28.76,35.21,28.5,35Z" transform="translate(-0.03 -3.55)"/><path class="cls-6" d="M29.32,37a.09.09,0,0,0,0-.06Z" transform="translate(-0.03 -3.55)"/><path class="cls-6" d="M26.94,34.08h0c.17.17.49.06.79.15-.31-.2-.62-.42-.92-.64a.77.77,0,0,0,.1.46h0Z" transform="translate(-0.03 -3.55)"/><path class="cls-6" d="M40.22,41.22l-.14-.1a3,3,0,0,0-1,0l.54.07Z" transform="translate(-0.03 -3.55)"/><path class="cls-6" d="M41.77,40.85A.44.44,0,0,0,42,41,.34.34,0,0,0,41.77,40.85Z" transform="translate(-0.03 -3.55)"/><path class="cls-6" d="M48.3,39.41l.77-.14c.07-.14-.2-.07-.31-.06C49,39.34,48.45,39.35,48.3,39.41Z" transform="translate(-0.03 -3.55)"/><path class="cls-6" d="M27.73,34.23l.31.19A.7.7,0,0,0,27.73,34.23Z" transform="translate(-0.03 -3.55)"/><path class="cls-6" d="M34,38l.27.29C34.35,38.24,34.34,38.15,34,38Z" transform="translate(-0.03 -3.55)"/><path class="cls-6" d="M33.91,38.62a2.63,2.63,0,0,0-.81-.47h0a1.44,1.44,0,0,0-.36-.1h0a.26.26,0,0,0-.2,0c-.07,0,.07,0,.29.13h0l.43.17a1.36,1.36,0,0,0-.13-.21,1.36,1.36,0,0,1,.13.21Zm-1.15-.52v0Z" transform="translate(-0.03 -3.55)"/><path class="cls-6" d="M42.58,39.6h-.15a1,1,0,0,1,.3.12C42.79,39.66,42.63,39.64,42.58,39.6Z" transform="translate(-0.03 -3.55)"/><path class="cls-6" d="M34.52,38.54l-.23-.24C34.16,38.41,33.71,38.42,34.52,38.54Z" transform="translate(-0.03 -3.55)"/><path class="cls-6" d="M54.88,7.45l-1-.86.27.37Z" transform="translate(-0.03 -3.55)"/><path class="cls-6" d="M56,12.71c.28.2.56.42.82.64C56.92,12.57,56.43,12.86,56,12.71Z" transform="translate(-0.03 -3.55)"/><path class="cls-6" d="M54.74,10V9.94A.1.1,0,0,0,54.74,10Z" transform="translate(-0.03 -3.55)"/><path class="cls-6" d="M51.82,8.8a9.32,9.32,0,0,0-1.23-.57,2.13,2.13,0,0,0,1.11.61A.19.19,0,0,0,51.82,8.8Z" transform="translate(-0.03 -3.55)"/><path class="cls-6" d="M50,8.28l.19.25C50.33,8.42,50.75,8.43,50,8.28Z" transform="translate(-0.03 -3.55)"/><path class="cls-6" d="M53.93,31.37c-.11.14-.35.39-.34.39a11.24,11.24,0,0,0-2,1.29L52,33c.33-.22.37-.32.16-.25h0a7.55,7.55,0,0,0,2.15-1.41C54.2,31.31,54.15,31.23,53.93,31.37ZM52,32.8Z" transform="translate(-0.03 -3.55)"/><path class="cls-6" d="M56.12,24.87,56,25h0A.13.13,0,0,0,56.12,24.87Z" transform="translate(-0.03 -3.55)"/><path class="cls-6" d="M55.19,24.82l0,.1Z" transform="translate(-0.03 -3.55)"/><path class="cls-6" d="M55.19,24.82c.13-.19.31-.15.22-.49A4.31,4.31,0,0,1,55.19,24.82Z" transform="translate(-0.03 -3.55)"/><path class="cls-6" d="M55.69,24.79l-.08.38.27-.3Z" transform="translate(-0.03 -3.55)"/><path class="cls-6" d="M55.58,27.11a.27.27,0,0,0,.28-.21.88.88,0,0,0-.33.21Z" transform="translate(-0.03 -3.55)"/><path class="cls-6" d="M57.32,22.42v-.1A.17.17,0,0,0,57.32,22.42Z" transform="translate(-0.03 -3.55)"/><path class="cls-6" d="M54.85,28.51h0Z" transform="translate(-0.03 -3.55)"/><path class="cls-6" d="M54.85,28.51a.56.56,0,0,0,.36-.29A.86.86,0,0,1,54.85,28.51Z" transform="translate(-0.03 -3.55)"/><path class="cls-6" d="M55.52,27.47a1.88,1.88,0,0,0-.32.75A1.73,1.73,0,0,0,55.52,27.47Z" transform="translate(-0.03 -3.55)"/><path class="cls-6" d="M51.06,32.35a.74.74,0,0,1-.21.2A.39.39,0,0,0,51.06,32.35Z" transform="translate(-0.03 -3.55)"/><path class="cls-6" d="M50.76,12c.27.19.52.41.77.62C51,12.12,51.51,12.25,50.76,12Z" transform="translate(-0.03 -3.55)"/><path class="cls-6" d="M57.47,26.64a.85.85,0,0,0,.15-.46c-.15.28-.3.56-.47.82A4.39,4.39,0,0,1,57.47,26.64Z" transform="translate(-0.03 -3.55)"/><path class="cls-6" d="M56.5,28l.16-.27-.1.14Z" transform="translate(-0.03 -3.55)"/><path class="cls-6" d="M56.23,28.43a5.62,5.62,0,0,0-.52.67A5.73,5.73,0,0,0,56.23,28.43Z" transform="translate(-0.03 -3.55)"/><path class="cls-6" d="M56.58,28.1c-.09.06-.16.07-.08-.08h0l-.27.42A3.08,3.08,0,0,1,56.58,28.1Z" transform="translate(-0.03 -3.55)"/><path class="cls-6" d="M30.61,32.94l.1.08-.21-.3Z" transform="translate(-0.03 -3.55)"/><path class="cls-6" d="M56.66,28l-.08.06h.07l-.22.37a4.57,4.57,0,0,1,.33-.37.85.85,0,0,0,.15-.46l-.24.44.17-.13h0Z" transform="translate(-0.03 -3.55)"/><path class="cls-6" d="M55.51,29.85a5.57,5.57,0,0,0-.52.67A5.78,5.78,0,0,0,55.51,29.85Z" transform="translate(-0.03 -3.55)"/><path class="cls-6" d="M55.86,29.51h-.1v-.12h0l-.23.36.19-.21-.19.21v.06A3.08,3.08,0,0,1,55.86,29.51Z" transform="translate(-0.03 -3.55)"/><circle class="cls-6" cx="55.75" cy="25.87"/><path class="cls-6" d="M55.84,29.29l-.06.13.16-.27Z" transform="translate(-0.03 -3.55)"/><path class="cls-6" d="M55.86,29.51a2,2,0,0,0,.25-.2Z" transform="translate(-0.03 -3.55)"/><path class="cls-6" d="M58.4,23.64c.07-.11.12-.22.18-.33,0-.41,0-.5-.11-.21l.06-.24a6.39,6.39,0,0,0,.08-2.34c-.07.06-.15.06-.17.31l.12.5a7.52,7.52,0,0,0-.14,1.48C58.41,23.08,58.41,23.36,58.4,23.64Z" transform="translate(-0.03 -3.55)"/><path class="cls-6" d="M24.45,23.34h0v0Z" transform="translate(-0.03 -3.55)"/><path class="cls-6" d="M29.06,32.39c0-.26,0-.48-.38-.6a.45.45,0,0,1,.1.34Z" transform="translate(-0.03 -3.55)"/><path class="cls-6" d="M52,26.42a.71.71,0,0,0-.3.13A.26.26,0,0,0,52,26.42Z" transform="translate(-0.03 -3.55)"/><path class="cls-6" d="M53.22,23.11V23A.1.1,0,0,0,53.22,23.11Z" transform="translate(-0.03 -3.55)"/><path class="cls-6" d="M52.2,26.82c-.24,0,0,.2-.09.34C52.18,27,52.62,26.79,52.2,26.82Z" transform="translate(-0.03 -3.55)"/><path class="cls-6" d="M51.17,27.59a.29.29,0,0,0,.3-.19A.57.57,0,0,1,51.17,27.59Z" transform="translate(-0.03 -3.55)"/><path class="cls-6" d="M51.17,27.59h0Z" transform="translate(-0.03 -3.55)"/><path class="cls-6" d="M51.47,27.39a1,1,0,0,0,.22-.56A1,1,0,0,0,51.47,27.39Z" transform="translate(-0.03 -3.55)"/><path class="cls-6" d="M33.42,20.78c-.07.08,0,.16,0,.26.07-.15.15-.29.23-.43A1,1,0,0,1,33.42,20.78Z" transform="translate(-0.03 -3.55)"/><polygon class="cls-6" points="33.83 16.66 33.88 16.59 33.9 16.51 33.83 16.66"/><polygon class="cls-6" points="32.5 21.2 32.48 21.22 32.57 21.49 32.57 21.47 32.5 21.2"/><polygon class="cls-6" points="38.55 16.99 38.56 16.93 38.52 17.04 38.55 16.99"/><polygon class="cls-6" points="37.48 20.13 37.55 20.32 37.56 20.31 37.5 20.12 37.48 20.13"/><path class="cls-6" d="M48.65,41.87a7.62,7.62,0,0,1-1.11-.15A.84.84,0,0,0,48.65,41.87Z" transform="translate(-0.03 -3.55)"/><path class="cls-6" d="M47.19,41.66l.35.06A.48.48,0,0,0,47.19,41.66Z" transform="translate(-0.03 -3.55)"/><path class="cls-6" d="M39.83,42.82c-.19,0-.88,0-.51.12l.94.09C40.27,42.89,40,42.86,39.83,42.82Z" transform="translate(-0.03 -3.55)"/><path class="cls-6" d="M35.82,41.62c.34.18.07-.28.77-.08l-.6-.39Z" transform="translate(-0.03 -3.55)"/><path class="cls-6" d="M33.35,41.64c-.1-.23-.2-.47-.29-.7C33,40.87,32.8,41.27,33.35,41.64Z" transform="translate(-0.03 -3.55)"/><path class="cls-6" d="M29.47,39.58c.37.28.75.56,1.14.83l-.32-.36Z" transform="translate(-0.03 -3.55)"/><path class="cls-6" d="M30.49,28l-.24.21A.37.37,0,0,0,30.49,28Z" transform="translate(-0.03 -3.55)"/><path class="cls-6" d="M30.75,26.11a1.6,1.6,0,0,1,0,.26A.42.42,0,0,0,30.75,26.11Z" transform="translate(-0.03 -3.55)"/><path class="cls-6" d="M31.22,29a.46.46,0,0,0-.16-.18Z" transform="translate(-0.03 -3.55)"/><path class="cls-6" d="M44.63,33.17a5.11,5.11,0,0,1-.61-.25C44.17,33.09,44.27,33.42,44.63,33.17Z" transform="translate(-0.03 -3.55)"/><path class="cls-6" d="M32.06,29.49a.14.14,0,0,0,0,.19l0,0v-.21Z" transform="translate(-0.03 -3.55)"/><path class="cls-6" d="M30.74,26.08Z" transform="translate(-0.03 -3.55)"/><path class="cls-6" d="M43.83,32.83l.19.09A.2.2,0,0,0,43.83,32.83Z" transform="translate(-0.03 -3.55)"/><path class="cls-6" d="M50.65,16.42a.57.57,0,0,0,0,.16C50.7,16.51,50.72,16.43,50.65,16.42Z" transform="translate(-0.03 -3.55)"/><path class="cls-6" d="M30,20.23a.21.21,0,0,0,.1.16A.18.18,0,0,0,30,20.23Z" transform="translate(-0.03 -3.55)"/><path class="cls-6" d="M49.11,30c.43.09.63.31,1.06,0-.17-.06-1,.39-.58-.29C49.59,29.74,49.4,30.08,49.11,30Z" transform="translate(-0.03 -3.55)"/><path class="cls-6" d="M48.37,30.37a.41.41,0,0,1-.15.15A.22.22,0,0,0,48.37,30.37Z" transform="translate(-0.03 -3.55)"/><path class="cls-6" d="M39.77,34h.5c0-.15-.15-.16-.22-.2S39.58,33.92,39.77,34Z" transform="translate(-0.03 -3.55)"/><path class="cls-6" d="M38,33h.06c.09,0,.07-.29.37-.19l0,0-.28-.1Z" transform="translate(-0.03 -3.55)"/><path class="cls-6" d="M36.58,33.4a3.1,3.1,0,0,0-.06-.61C36.46,32.49,36.3,33.15,36.58,33.4Z" transform="translate(-0.03 -3.55)"/><path class="cls-6" d="M35.12,32.75,35,32.48l-.44-.25A5.56,5.56,0,0,0,35.12,32.75Z" transform="translate(-0.03 -3.55)"/><path class="cls-6" d="M33.46,31.31l.12,0-.43-.37Z" transform="translate(-0.03 -3.55)"/><path class="cls-6" d="M35.7,14.93c0,.65-.77.19-.6.78C35.22,15.48,36,15.31,35.7,14.93Z" transform="translate(-0.03 -3.55)"/><path class="cls-6" d="M48.31,15.26a6.55,6.55,0,0,1,.56.49C48.45,15.35,48.89,15.41,48.31,15.26Z" transform="translate(-0.03 -3.55)"/><path class="cls-6" d="M35.67,26.13l-.24.19A.47.47,0,0,0,35.67,26.13Z" transform="translate(-0.03 -3.55)"/><path class="cls-6" d="M36.1,24.68a.86.86,0,0,1,0,.19C36.13,24.77,36.14,24.72,36.1,24.68Z" transform="translate(-0.03 -3.55)"/><path class="cls-6" d="M36.11,26.73l.12.13A.26.26,0,0,0,36.11,26.73Z" transform="translate(-0.03 -3.55)"/><path class="cls-6" d="M36.94,27.19h0v0Z" transform="translate(-0.03 -3.55)"/><path class="cls-6" d="M36.1,24.65Z" transform="translate(-0.03 -3.55)"/><path class="cls-6" d="M35.35,20.37a.22.22,0,0,0,.11.13A.18.18,0,0,0,35.35,20.37Z" transform="translate(-0.03 -3.55)"/><polygon class="cls-6" points="34.86 17.54 34.89 17.52 34.9 17.49 34.86 17.54"/><polygon class="cls-6" points="37.61 24.75 37.87 25.04 37.97 24.96 37.61 24.75"/><path class="cls-6" d="M44.79,13.53Z" transform="translate(-0.03 -3.55)"/><path class="cls-6" d="M31.06,28.77h0c.23.13.54-.69.75,0v.41c0-.06.12-.08.18-.09s.05.28.08.42c.9-.07.45,1.08,1.22,1.27-.19-.08-.37-.32-.12-.41s.24.21.25.36v-.09a11.09,11.09,0,0,0,.75,1.14c0-.27-.51-.7-.09-.75s.43.32.61.47c-.13.16-.59.08-.28.41.1-.06.56,0,.47-.25a10.47,10.47,0,0,1,1,1.29c.15,0,0-.19,0-.24h0c-.19-.22.19-.49-.37-.53.26-.61.73.16,1.19.24q-.24-.34-.45-.69h.28c-.4-.3-.84-.59-1.24-.86v.28h0v.07a8.21,8.21,0,0,1-.6-.58l.61.52,0-.25-.64-.42c-.6-.41-1-.54-.43.1l.06.07-.06-.07a13.06,13.06,0,0,1-1.7-2.39,2.13,2.13,0,0,1-.13-2h0a1.87,1.87,0,0,0-.08-.32v-.24h0A6.72,6.72,0,0,1,33,21.41a8.07,8.07,0,0,1,1.79-2.76l.38-.42.38-.17a9,9,0,0,1,3-1.65c.06-.08.1-.16.22-.16a1,1,0,0,0,.27,0l.46-.12.16-.06h0c.08,0,0-.09,0-.11h0l-.17-.05.19.06A1,1,0,0,0,40,16l.2-.06L40,16h0l-.25.1h-.07a9.48,9.48,0,0,1,1.07-.17l.22-.05a.84.84,0,0,1,.68,0h.51l.33-.24c-.32.25-.64.5-1,.4l.09.15c-.73-.2-.08.91-.79.37-.2.21.26.42-.08.6-.1,0-.11-.14-.11-.2-.5,0,0,.48-.57.28l.3.4c-.57-.1-1.53-.51-1.8,0,.25.28.46.08.71.26-.92-.21-1.19.85-1.81,1-.13-.35-.78-.24-.71-.73.44.23.33-.12.53-.25-.51-.24-.7.16-.8.54s-.13.73-.56.54l.27.28c-.1,0-.48.15-.5-.07a8.09,8.09,0,0,0-.13.81c.38-.15,1.19-.28.93-.62.44,0,.08.38.57.47-.76.07.1.36-.2.68-.42-.42-.86.13-1.1,0,0,.19-.31.46-.53.57-.14.31.18,1,0,1.51a.9.9,0,0,1,.77-.38c-.22.19-.22.45.18.49.78-.66-.94-.31-.36-1a1.16,1.16,0,0,0,.85-.51c.22.21.34.18.64.32-.52,0-.6.3-.6.56s.09.53-.15.79-.91.07-1,.65c-.11-.15-.23-.31-.34-.48.31.55-.28.15-.34.65l.29-.23A.46.46,0,0,1,35,24l.45-.32c.08.14.19.39-.09.46a.91.91,0,0,0,.3,0c-.07,0-.11.13,0,.29,0-.11,0-.17.12-.21.06.65.54,0,.61.38.09-.09.26,0,.35.06-.74.24-.53,1-.78,1.41h0v.66c0-.14.23-.14.4,0h0c.2.07.58-.63.68-.1V27l.17-.1s0,.23,0,.34c.79-.19.25.86.88.93-.15,0-.27-.23,0-.34s.17.15.16.28L38,28a8.09,8.09,0,0,0,.47.94c.07-.26-.33-.57,0-.68s.3.23.43.35c-.12.17-.48.14-.28.41.09-.06.45-.09.4-.29a6.38,6.38,0,0,0,.41.64,5.5,5.5,0,0,1-1.92-.86,13.65,13.65,0,0,1-1.8-1.33,5.39,5.39,0,0,1-1.24-1.66c-.46-.56-.87-.7-1.23-.6a1.07,1.07,0,0,0-.61.47,2.13,2.13,0,0,0,.13,2,13.13,13.13,0,0,0,1.7,2.39c-.53-.64-.16-.51.43-.1a25.73,25.73,0,0,1,2.32,1.62,5.21,5.21,0,0,0,3.44,1.09,7.92,7.92,0,0,0,.84,0A16.77,16.77,0,0,0,46.19,31a9.1,9.1,0,0,0,2.18-1.4,8.68,8.68,0,0,0,2.42-2.68h0l.1-.17h0l.16-.31h0v.07l-.09.23h0v.11h0a8.62,8.62,0,0,1-1,1.68h0a8.74,8.74,0,0,1-.56.68h0a8.63,8.63,0,0,1-1,.93h0l-.3.23-.24.19h0l-.27.21h0l-.3.22h0a7.23,7.23,0,0,1-1.37.78l-.78.31c.45,0,.93.09,1.35.09a1.75,1.75,0,0,0,.49-.06c.15-.39-.62.06-.65-.41.4,0,.6-.49.86-.2-.28-.33.31-.39.18-.48h0l.32-.18h0A.68.68,0,0,0,48,31h.15c-.2-.16,0-.24.12-.35a.45.45,0,0,1-.19,0,10.27,10.27,0,0,0,1.17-.88h0a9,9,0,0,0,1.3-.76.55.55,0,0,1-.34-.27l-.14.15.14-.15h0l.17-.21h.25c.19,0,.34-.08.52-.44-.06-.27-.13-.28-.25-.29a8.34,8.34,0,0,0,.56-1,1.28,1.28,0,0,1,.22-.22h-.12l.11-.26v.06c.13-.18.24-.36.46-.39l-.25-.13A7.66,7.66,0,0,0,52,25l0-.12a2.58,2.58,0,0,0,.32-1.43.38.38,0,0,0-.22.13v-.76c.07-.19.13-.27.2-.28v.18a.88.88,0,0,0,.07-.17c.16.08.33.38.52.38s.18-.07.28-.25h0V23a.08.08,0,0,1,.11,0v.44a4,4,0,0,1,.21-.64h0v-.09h.24c.1,0,.08.45.12.67.26-.17.39,0,.59,0h0A10.21,10.21,0,0,0,55,21.24c-.15.13-.2.46-.39.37-.27-.53.21-.54-.17-1l-.16.29c.07-.06.08-.14.14,0a.23.23,0,0,1-.1.31c-.33-.11-.28-.66-.14-.88-.26-.64-.54,0-.67-.07.34-.5-.42-1-.43-1.45l-.16.37c-.56-.25-.5-.75-.58-1.06l-.16.23c-.34-.6-1.21-.26-.82-1.24l-.09.17c-.24-.15-.64-.3-.63-.67-.08.07-.21.14-.3.09.14-.36-.25-.34-.57-.53a.39.39,0,0,0-.21-.16.82.82,0,0,0,.21.16c.14.23-.22.53-.11.78-.71,0,0-.72-.45-1-.37,0,.06.35,0,.54a.81.81,0,0,0-.64-.31,5.77,5.77,0,0,0-1-.63h0l.38-.1c-.15-.31-.3-.39-.31-.29s.08.11.07.2c-1,0-.94-1.22-1.88-1.34,0,.18.11.28.07.42-.43,0-.11-1-.87-.82l.08.23c-.21.05-.31-.17-.3-.27-.21.67-1.41-.35-2,.63-.26-.47-1.18-.84-1.46-.59s.12.48.21.74H41.2a.52.52,0,0,0-.55-.08c0-.44.88-.94,0-1.13l-.11.24c.09,0,.21-.13.35-.09.27.24-.14.3-.19.42h-1c-.13-.46.46-.41.51-.53-.79.17-1.53,1-2.27.89l.11.15c-1-.13-.22.95-1.12.47-.3.24.29.41-.19.64-.14.06-.13-.13-.12-.2-.68.12-.08.52-.82.4l.29.32-.1.05h.15c-.76,0-1.92-.29-2.33.3.26.27.56,0,.85.16-1.1-.08-1.66,1.21-2.4,1.63-.08-.4-.85-.15-.69-.76.47.2.4-.21.65-.39-.56-.19-.84.3-1,.78s-.27.93-.7.75l.25.31c-.12.08-.55.26-.53,0-.1.34-.18.69-.25,1,.42-.24,1.31-.53,1.09-.92.48,0,0,.47.55.5-.84.22,0,.45-.34.93-.38-.5-.93.29-1.17.19,0,.24-.37.64-.6.8-.16.41.11,1.39-.08,2,.17-.24.44-.6.78-.53-.23.27-.23.62.17.67.8-1-.94-.4-.33-1.32a1.45,1.45,0,0,0,.91-.78c.2.27.34.21.62.38h0l-.37-.16a4.09,4.09,0,0,0-.1.41h0a1,1,0,0,0-.19.61,2,2,0,0,1-.17,1.13c-.27.32-.92.09-1,.88a6.88,6.88,0,0,1-.35-.66c.32.74-.28.19-.33.85l.29-.29a.72.72,0,0,1-.12.78l.43-.4c.08.19.22.54-.06.61a.68.68,0,0,0,.31,0c-.07.06-.11.16,0,.39,0-.15,0-.23.1-.27.12.88.55.06.67.57.08-.11.26,0,.38.13-.75.24-.43,1.29-.63,1.75h0a4.77,4.77,0,0,0,.13.83C30.6,28.6,30.87,28.64,31.06,28.77ZM48,30.54Zm4.09-5.78a1.25,1.25,0,0,1,0,.15L52,25ZM39.88,18.32h.19a1.15,1.15,0,0,1-.73.49l-.08.19a.14.14,0,0,1-.12,0l.37-.43a1.37,1.37,0,0,1,.38-.13C39.77,18.49,39.76,18.42,39.88,18.32ZM39,19h0a8.54,8.54,0,0,1,.62-.78A8.55,8.55,0,0,0,39,19Zm0,0h0v0Zm-2.09,1.6h0l.16-.2,0-.06C37,20.4,37,20.5,36.91,20.6Zm.26.85a6.65,6.65,0,0,1,.53-1.55A6.49,6.49,0,0,1,39,18.44a.27.27,0,0,1,.13-.07c.13,0-.24.59-.38.82s-.42.06-.48.21a2.47,2.47,0,0,0-.43.82c0,.14-.25,0-.26,0-.21.41,0,.87-.23,1.08a2.66,2.66,0,0,0-.33.5A3.28,3.28,0,0,0,37.17,21.45Zm1.74-2.31h0L39,19l-.07.09Zm10.33,8.25h0a5.9,5.9,0,0,1-.61.48,8.48,8.48,0,0,1-1.12.79h0l-.14.07h0l-.22.11h0l-.13,0h0l-.76.29h0l-.67.24.13.19h-.09l.16.1-.16-.1h.09l-.13-.19h-.09l.1.07h0a2.29,2.29,0,0,0,.14.24,2.28,2.28,0,0,1-.14-.24.92.92,0,0,0-.34,0v.06h0v-.06h0a.92.92,0,0,1,.34,0h0l-.1-.07-.17,0-.37.11h-.17a7.68,7.68,0,0,1-1.18.23h-.12a.28.28,0,0,0,0,.08.28.28,0,0,1,0-.08h-.5a4.49,4.49,0,0,1-.85-.08h0a3.5,3.5,0,0,1-.72-.22c0,.08-.06.16-.12.1v-.13l-.18-.09a7,7,0,0,1-1.51-.15c0-.12,0-.22-.22-.21.28-.6.55.07.89.1-.1-.21-.19-.41-.27-.61h0A8.33,8.33,0,0,0,39.3,28v.09h0v.06l-.38-.43h-.06c-.42-.28-.71-.35-.4.11l.07.1-.07-.1a12.22,12.22,0,0,1-1.13-1.75,1.35,1.35,0,0,1,.08-1.47h0a1.5,1.5,0,0,0,.16,1,12.23,12.23,0,0,0,1.13,1.75c-.31-.45,0-.38.4-.11a9.57,9.57,0,0,1,1.63,1.27,3.27,3.27,0,0,0,2.49.94h.62l.57-.09h0a2.63,2.63,0,0,0,.77-.19h0L45.4,29h.19l.11,0h0l.33-.11h0l1.07-.4h.12a6,6,0,0,0,1.5-.94,5.66,5.66,0,0,1-.56.3h0a5.68,5.68,0,0,0,.56-.3l.1-.08.4-.3h0a6.16,6.16,0,0,0,1.23-1.36h0l-.43.11a3.9,3.9,0,0,0-.46.5h0a3.9,3.9,0,0,1,.46-.5h0l.43-.11h0a6.24,6.24,0,0,0,.37-.64h0a6.16,6.16,0,0,1-.26.58.36.36,0,0,0,.19-.1.54.54,0,0,1,.14-.4.53.53,0,0,1-.14.4s-.07.09-.19.11l-.12.22h0l-.21.35h0l-.06.09h0l-.19.26h0l-.1.13h0v.06h0l-.14.17h0l-.27.29h0l-.17.17Zm-3.71,2.18-.06-.07Zm-.53.09h0Zm-1.66-.22h0Zm-.22,0Zm6.15-2.83Zm0-.35h0l.17.07Zm.06.47.19-.28h0l.08-.06h0l-.08.06-.19.28a1.07,1.07,0,0,0-.12.26,1.07,1.07,0,0,1,.11-.32Zm.13-.41h0Zm1.37-1.19ZM50,26.68Zm0,0Zm-.53.85v0Zm-.13-.19.06-.06Zm.14.2c-.11,0-.16-.1,0-.3h0c-.1.21,0,.28,0,.3h.21a.15.15,0,0,1-.23,0Zm.2.08a.2.2,0,0,0,0-.08h.23a.44.44,0,0,1-.25.07ZM51.55,18a.44.44,0,0,1-.15.32.44.44,0,0,0,.15-.32l-.27-.25h0Zm-.33,0a.31.31,0,0,1-.17-.28.31.31,0,0,0,.18.28Zm-.2-.59h0A4.79,4.79,0,0,1,51,18a4.83,4.83,0,0,0,0-.61Zm-.06.86-.09-.06h0ZM51,18h0l-.09.15Zm-.15.13Zm-.11-.06-.2-.07h0Zm-.2-.07Zm0,0h0Zm-.26-1.23a.16.16,0,0,1-.11.18h0a.16.16,0,0,0,.1-.18Zm-.19-.32v0Zm-1.52-.32a8.81,8.81,0,0,1,1.37,1.34h0a8.81,8.81,0,0,0-1.37-1.34Zm.62,3ZM47.72,18Zm0,0h0Zm-.16,0v0Zm-1.83-.41a4.4,4.4,0,0,1,1.52.3,4.41,4.41,0,0,0-1.52-.3Zm-.13.07a.37.37,0,0,0,0-.06l0,0Zm0-.07Zm-.11,0h0l.11.08h0l.08.08h-.1a.5.5,0,0,1-.35-.15h0l-.1-.1a.59.59,0,0,1,.33.07Zm-1-1.49Zm0,0Zm0,.06Zm-.14,0Zm0,0Zm-.16-.22Zm0,.06ZM44,16l.09-.06h0a.16.16,0,0,1,.09.07h0a.16.16,0,0,0-.09-.07H44Zm-.11.13v0h0l.22.06h-.22a.2.2,0,0,0-.13.12.27.27,0,0,1,0-.17.2.2,0,0,0-.13.14.2.2,0,0,1,.27-.08h0Zm0,.54-.12-.19h0Zm-.12-.2v0Zm-.27-.71h0a.39.39,0,0,0,0,.14h0l-.11-.08Zm-.41.4a1.24,1.24,0,0,1,.11-.31v.07l.36.07h0v.09h0l-.51.11Zm-.53.17c.37-.09.7-.16,1-.21a.69.69,0,0,1,.11.2h0v.06h0a.39.39,0,0,1,0,.09c-.1,0-.24-.14-.34-.17h0a.25.25,0,0,0-.3,0,.45.45,0,0,1,0-.08l-.52.12Zm.62,1.09a.28.28,0,0,1-.13,0,.28.28,0,0,0,.21,0Zm-.45,0Zm.08.07h0l-.5.07h0Zm.13,0Zm-.68,0a.54.54,0,0,0,.19,0h.14l-.14,0h0l-.17.08h0a4.31,4.31,0,0,0,.61-.1h.26c.17-.06.35-.11.47,0h0l.08-.06-.08.06h.68l.46.07h0l.56.13h.15a4.15,4.15,0,0,1,.5,0,4.4,4.4,0,0,1,1.48.28h.06a4.46,4.46,0,0,1,.53.25A4.45,4.45,0,0,0,47.6,18h0a4.32,4.32,0,0,1,1.54,1.29,1,1,0,0,0,0-.22l.06.06a.33.33,0,0,0,0-.21.33.33,0,0,1,0,.21,4,4,0,0,1,.38.49,4,4,0,0,0-.38-.49.75.75,0,0,1-.08.18l.14.2A4.35,4.35,0,0,1,50,20.68h0l.08.25a1.12,1.12,0,0,0,.08-.26,1.12,1.12,0,0,1-.08.26c.13.37.27.73.39,1.11l.09-.06.14-.15-.08-.23.08.23h0v.07l-.17.08-.08.08v.1h0l.08.28a1,1,0,0,0,.27-.12l-.06-.17h0l.06.17h0a1,1,0,0,1-.27.12,5.62,5.62,0,0,1,.13.6h0v.28h0v.13h0a.46.46,0,0,0,.2,0,.53.53,0,0,1-.23,0v.08h0a3,3,0,0,1,0,.37h0a2.55,2.55,0,0,1-.08.45h0a2,2,0,0,1-.19.45l.11,0c0,.14.19.17.23.21h0l-.38-.11a1.61,1.61,0,0,1-.49.48l-.21.16a1.1,1.1,0,0,0,.1.19,1.11,1.11,0,0,1-.1-.19,4,4,0,0,0-.79.93c-.18.3-.21.54.15.34h0c-.61.35-1,.59-1.31.74a1,1,0,0,1-.55.08l.09.06-.09-.06h0a1.5,1.5,0,0,1-.2-.17h-.24a3.1,3.1,0,0,1-2-.32,3.63,3.63,0,0,1-1-.62h-.07a.58.58,0,0,1,0,.06l-.08-.06a4.39,4.39,0,0,1-.6,0l.28.12c.11,0,0,.34.11.37h0l.21.06v0L43.32,27a.82.82,0,0,0,.25.13h0l.32.09c.06,0,0,0,0,.11h0v.07h0a.63.63,0,0,0,.26,0h.32l-.13-.11c-.07-.08-.22,0-.39,0h.39l.13.11a.27.27,0,0,1,.22,0l.15.13,0-.15a1.63,1.63,0,0,0,0,.19l.12.09v.22a.53.53,0,0,0,.06.21h-.19L45,27.8h-.08a4.81,4.81,0,0,1-1.14-.28l-.11-.07h0a4.39,4.39,0,0,1-1-.79v-.09l-.32-.08h0l-.25-.09h0l-.23-.1.06.08-.06-.08-.27-.15h0a2.79,2.79,0,0,1-.4-.3c-.3-.26-.72-.54-1.07-.86a3.32,3.32,0,0,1-.75-1,1.26,1.26,0,0,0-1.75.11,1.44,1.44,0,0,0-.24.53h0l0-.21v-.16h0a4.66,4.66,0,0,1,.48-2.94,5.5,5.5,0,0,1,1-1.61h-.06l.13-.16h0l.29-.39A1.29,1.29,0,0,0,39.7,19a6,6,0,0,1,2-1.13.14.14,0,0,1,.14-.14.59.59,0,0,0,.2,0l.32-.08h.11s0-.08,0-.11h0l-.12-.06ZM50.81,23Zm0,2ZM41.59,14.39a.34.34,0,0,1,0,.14.46.46,0,0,1-.27-.11Zm-5.76,3h0l.21-.18h.14a3,3,0,0,1-.87.66Zm-.65.51.16,0-.16,0Zm-3,3.77a9.12,9.12,0,0,1,.85-2.1,9.26,9.26,0,0,1,1.8-2,.44.44,0,0,1,.18-.1c.13,0-.42.72-.64,1s-.53.16-.62.35a4.08,4.08,0,0,0-.66,1.09c-.06.19-.28,0-.3.11-.31.56-.22,1.14-.44,1.45a5.41,5.41,0,0,0-.42.72c.07-.19.21-.36.28-.56Zm-.33-1.74-.06.11.06-.1Zm-.07.09h0l-.11.16Zm-.15.3.12-.22-.12.23Zm0,0Z" transform="translate(-0.03 -3.55)"/><path class="cls-6" d="M31.82,29.15Z" transform="translate(-0.03 -3.55)"/><path class="cls-6" d="M41.94,33.26c-.29-.33-.9,0-1.24-.15s.49.11.36.48a1.22,1.22,0,0,1-1-.48,6.92,6.92,0,0,1-.83-.08.49.49,0,0,0-.1.29,3.41,3.41,0,0,0,1.34.41h-.06c.39-.23.9.29,1.16-.17-.16-.29-.55.26-.53-.32C41.34,33.23,41.64,33.26,41.94,33.26Z" transform="translate(-0.03 -3.55)"/><path class="cls-6" d="M44.41,32.28H44.3a1.06,1.06,0,0,0,.3,0h0A.36.36,0,0,1,44.41,32.28Z" transform="translate(-0.03 -3.55)"/><path class="cls-6" d="M43.83,32.83l-.4-.22-.47.13c.15.3.25.62.6.62a.8.8,0,0,0,.22,0L43.51,33A.6.6,0,0,1,43.83,32.83Z" transform="translate(-0.03 -3.55)"/><path class="cls-6" d="M34.47,29.74l.06.07Z" transform="translate(-0.03 -3.55)"/><path class="cls-6" d="M36,17.31h0Z" transform="translate(-0.03 -3.55)"/><path class="cls-6" d="M38.88,27.8c.13.12.25.25.39.36v-.08Z" transform="translate(-0.03 -3.55)"/><path class="cls-6" d="M39.15,19.21a1.78,1.78,0,0,0-.36.3h0Z" transform="translate(-0.03 -3.55)"/><path class="cls-6" d="M38.65,27.33l.07.1Z" transform="translate(-0.03 -3.55)"/><path class="cls-6" d="M39.88,18.48Z" transform="translate(-0.03 -3.55)"/><path class="cls-6" d="M31.35,7.11a.77.77,0,0,1-.11.22l.16-.08A.16.16,0,0,0,31.35,7.11Z" transform="translate(-0.03 -3.55)"/><path class="cls-6" d="M31.2,7.5h-.1a4.67,4.67,0,0,1-.85.41,1.24,1.24,0,0,0,.46-.06A4.13,4.13,0,0,0,31.2,7.5Z" transform="translate(-0.03 -3.55)"/><path class="cls-6" d="M66.74,19.52c-.14.19-.14.75-.35.58-.35-1,.14-.89-.34-1.75a2,2,0,0,1-.11.47c.07-.09.06-.23.14,0s.09.47,0,.51c-.35-.25-.42-1.2-.33-1.54-.44-1.14-.58-.06-.75-.28.26-.76-.77-1.83-.93-2.56a1.75,1.75,0,0,1-.06.56,3.91,3.91,0,0,1-1.09-1.92l-.11.31c-.65-1.06-1.7-.95-1.6-2.25v.21c-.39-.33-1-.73-1.18-1.25a.33.33,0,0,1-.4,0c0-.44-.51-.6-1.1-1,.31.37-.11.63.19,1-1.12-.33-.42-1-1.17-1.59-.58-.14.25.5.24.72a2.42,2.42,0,0,0-.89-.6h0V9.08h-.08l-.52-.17.18.23-.18-.23h0q-.3-.38-.63-.75c0,.16.26.46.42.69a4,4,0,0,1-1-.37l.1.13L55,8.47a1.13,1.13,0,0,1-.39-.38,1.13,1.13,0,0,0,.39.38,1.43,1.43,0,0,0-.2-.21c.16-.14.88.17.33-.37a4.07,4.07,0,0,0-.63-.06h.67c-.39-.45-.67-.59-.64-.48a.27.27,0,0,1,.2.27,3.14,3.14,0,0,1-.93-.35,9.15,9.15,0,0,1,.68.7,9.2,9.2,0,0,0-.68-.7h0A10.19,10.19,0,0,1,52.58,6c-.24,0,0,.21.12.29h.08a.42.42,0,0,1,.15.36h0c0,.11,0,.21.35.34-.31-.13-.34-.23-.35-.34a6.57,6.57,0,0,0-1.23-.9h0l-.15-.07.15.07a.7.7,0,0,0-.32-.53l.14.44h0a3.37,3.37,0,0,0-.63-.21c.07.2.28.34.24.48-.79-.07-.46-1.11-1.81-1.1l.19.26a.66.66,0,0,1-.62-.33h0c-.15.38-1.06.1-2,0h0a3.44,3.44,0,0,0-.93,0h-.08l-.2.06h0a1.19,1.19,0,0,0-.44.27,4.13,4.13,0,0,0-2.86-.66h0c-.66.41.33.49.43.79h.33a.24.24,0,0,1,.23-.1.65.65,0,0,1-.23.1h1.61l1,.08.12-.14c0,.07,0,.13.14.18h.11A.33.33,0,0,0,46,5.23L45.83,5l.18.19a.33.33,0,0,1,.07.15,12.55,12.55,0,0,1,3.26.89l-.24-.12A14.36,14.36,0,0,0,45.84,4.8H46a15.34,15.34,0,0,1,3.11,1.28l.24.12.61.29h0a8.17,8.17,0,0,1,1,.6l.92.61.76.51h0l.08.05-.08-.05c0,.06,0,.14.19.3a.17.17,0,0,0,.07-.12h0a.25.25,0,0,0,0-.08.25.25,0,0,1,0,.08c.82.57,1.63,1.15,2.22,1.62,1,.87,1.59,1.21.51,0a18.34,18.34,0,0,1,3.06,4.43,5.24,5.24,0,0,1,.52,3.46q.06.31.11.62h0a1.84,1.84,0,0,0-.11-.62h0a1,1,0,0,1-.07.19,6.86,6.86,0,0,1-.28-1H58.8a12.53,12.53,0,0,0-2.25-3.76L56,12.81c.22.29.42.56.61.83-.19-.27-.39-.54-.61-.83h0l-.21-.26-.07-.08h0l.07.08h0a.57.57,0,0,0,.2.12l-.25-.18h0l-.59-.71.18.19c.13-.21-.4-.54-.68-.69l.44.44c.29.35.38.51.33.52a14.86,14.86,0,0,0-1.19-1h0l-.06-.1a.26.26,0,0,1,0,.07h0a.17.17,0,0,1,0,.11h0a.17.17,0,0,0,0-.11A16.09,16.09,0,0,0,52.44,10l1.15.82L52.44,10l-.26-.14.26.14-.69-.48.16.19h0a6.22,6.22,0,0,0,.61.57,6.22,6.22,0,0,1-.61-.57l-.2-.1.2.1-.16-.19h0A2.16,2.16,0,0,1,51.42,9c0,.08-.16.1-.27.15h0l-.88-.58.16.2h0l-.16-.2H50.2a.26.26,0,0,0,.15.2c-.15-.1-.17-.16-.15-.2A10.63,10.63,0,0,0,46,6.85l.54.27A4.53,4.53,0,0,1,46,6.85l-.36-.06.36.06-.38-.23-.16.15h0a1,1,0,0,1-.54.29c0-.45-1.74.13-2.42-.38-.1.11.31.11,0,.24-.47-.06-1-.12-1.6-.17q-.61.07-1.22.18l-.43.13a.37.37,0,0,1-.29,0q-.69.15-1.37.33A9.38,9.38,0,0,1,36,8.11c-.56.16-1.06.32-1.55.49a9.83,9.83,0,0,0-.9.41L33,9.38a22.35,22.35,0,0,0-3.84,3.28h0A8.54,8.54,0,0,1,31.44,11c-.22.09-.17,0,.17-.27l.39-.09-.43.34-.13.06.13-.06a9.55,9.55,0,0,1-1.62,1.13s-.24.28-.35.43-.27.09-.36.07l-.4.41c.22-.12.66-.4,1-.61h-.07a15.66,15.66,0,0,0-5.39,9.83v.51l.11-.23v1.36a14.34,14.34,0,0,0,.64,2.46h0a14.91,14.91,0,0,0,2.06,3.87,8,8,0,0,1,.86.85l.08-.29c.09.18.12.36.32.43V31a9.07,9.07,0,0,0,2.27,2.17L30.64,33a13.61,13.61,0,0,1-2.47-2.54,9.27,9.27,0,0,1-.61-.9c-.19-.1-.35-.11-.31,0-.09-.35-.19-.69-.25-1h0a.31.31,0,0,1-.23.23l.23-.23h0q-.15-.31-.28-.62h0A11.77,11.77,0,0,1,26,25.37h0q0-.34-.09-.69l-.34.42a1.13,1.13,0,0,0,.09-1l-.28.36c0-.85.64-.13.31-1.1,0,.15.11.3.17.44A11.32,11.32,0,0,1,26,22a2.75,2.75,0,0,0-.31.48c.19-.83,0-2.1.16-2.62h0l0-.08h0a2.23,2.23,0,0,0,.68-1.07.37.37,0,0,1-.08-.19.2.2,0,0,1,.08.19c.1,0,.3-.15.52-.33q.26-.55.57-1.07l.21-.45-.21.45q.18-.31.38-.61h0a14.07,14.07,0,0,1,1.13-1.48h0a14.82,14.82,0,0,1,2.29-2.12h0l.43-.31.34-.23a1.57,1.57,0,0,0-.84.49h0a1.57,1.57,0,0,1,.84-.49l.83-.53a.45.45,0,0,1,.22-.13l.54-.3a.57.57,0,0,0,.07-.22.21.21,0,0,1,0,.15,19.28,19.28,0,0,1,3-1.3H37q.58-.19,1.18-.34c.34-.15.69-.33,1-.48a10.34,10.34,0,0,0-1,.48l1-.23h0q.82-.16,1.65-.25H41a16,16,0,0,1,5,.29h0l.32.07h0L47,10a.55.55,0,0,0-.34-.2A.55.55,0,0,1,47,10a12.93,12.93,0,0,1,3.38,1.54,21,21,0,0,1,2.37,1.69h0l.41.35h0l.15.14h0c.27.24.52.5.77.77l.32.36h0v-.09h0v.09l.35.43.28.28-.28-.28.31.42v-.11h0v.11c.22.31.42.63.6.94l.13-.1-.13.1c.13.23.25.46.36.68h0l.18.39h0l.07.17.24-.09h0l-.24.09.17.43c.61,1.27,1,1.7,1.32,1.7h.11a.64.64,0,0,0,.34-.25l0-.08,0,.08a1.53,1.53,0,0,0,.18-.31c0-.08-.06,0-.12.08h0c.06-.07.07-.15.12-.08a.88.88,0,0,0,.06-.17h0a.68.68,0,0,1,.1.62h0a2,2,0,0,0,.06.48h0L58.53,20h0l0,.32v.12h0c.2.11.23-.3.38-.45a13.06,13.06,0,0,1-.25,2.84H58.6a12.75,12.75,0,0,1-.51,2.63v0a12.65,12.65,0,0,0-.44,1.33l-.1.24h0A14.34,14.34,0,0,1,56.43,29h0l-.15.09h.09q-.28.42-.59.83l-.07.09.07-.09-.08.1h0a16.08,16.08,0,0,1-1.06,1.24,2.66,2.66,0,0,0-.46.25.44.44,0,0,1,0,.11h0l-.08.07-.64.65h0a2.76,2.76,0,0,0-.8.58l.3-.16-.3.16-.07.1.07-.1-.16.09-.39.29.43-.56a22.46,22.46,0,0,1-2,1.41l-.42.26.42-.26a22.43,22.43,0,0,0,2-1.41l.07-.1c-1.2,1.19-2.59,1.1-3.82,2,.09.07.26.09.33.15h0s.06.1,0,.22a17.22,17.22,0,0,0,3-1.74h0a17.21,17.21,0,0,1-3,1.74h0c-.38-.19-1.18.37-1.27.12h0a.22.22,0,0,1,0-.11,1,1,0,0,0-.16.15h0a3.24,3.24,0,0,0-.32.53h0a.42.42,0,0,1-.14.12h-.38l-.07,0h0a.66.66,0,0,1-.37.16h-.5L45,36.4l-.31.08h-.08l1-.2-1,.2s0,.06.08.08h0a3.1,3.1,0,0,0-.49,0l-.39.07h-.42a1.51,1.51,0,0,1-.37,0h-.13a17,17,0,0,0,1.71-.2l-.3.07h-.12l.2,0h0l.29-.08.14,0a18.73,18.73,0,0,1-2,.25l-.42.06a3.43,3.43,0,0,1-1.16,0H40l-.66-.06h-.08l-.41-.06c-.43-.07-.89-.18-1.37-.3s-.88-.21-1.31-.35-.7-.23-1-.36h0l0,.23a.6.6,0,0,1-.21-.29c-.57-.17-1.14-.36-1.72-.59h0A13,13,0,0,1,29.4,32.5l-.24-.22a.66.66,0,0,0,.17.35c-.51-.16-.46-.39-.45-.62a14.9,14.9,0,0,1-1.54-1.78A5.26,5.26,0,0,1,25.41,28c-.31-.43.07.3,0,.38-.33-.15-.48-.86-.44-1-.27.28.1.85-.22.7a4.78,4.78,0,0,0,.07.62,11.7,11.7,0,0,0,.54,1.13q-.29-.56-.54-1.13-.14-.34-.27-.69a1.26,1.26,0,0,0-.44.74,6.16,6.16,0,0,1,.33.93l.33-.12a2.15,2.15,0,0,0,.31,1,.2.2,0,0,0,.07-.16c-.06-.15-.11-.29-.16-.45a.63.63,0,0,1,.16.45A8.69,8.69,0,0,0,26.78,33a.68.68,0,0,0,.12-.23h0a23.69,23.69,0,0,0,2,2.24h0l.28.28L28.91,35h0c-.37-.38-.48-.54-.4-.54a3.77,3.77,0,0,0,.81.71V35c.15.24.31.48.48.71-.06-.16,0-.21.14-.3.55.38,1.23.8,1.93,1.22h0A3.68,3.68,0,0,1,33,37.75c0-.12.38-.11.38-.29l1,.57a10.81,10.81,0,0,0,3.35,1.27h0l.4.19h.06L38,39.36h.27a6.66,6.66,0,0,1,1.16.5l.19-.19h0l.16-.13h2.76l.84-.09h2.5a10.22,10.22,0,0,0,4-.88.54.54,0,0,0,.26.23l.57-.26A18.51,18.51,0,0,0,54.57,36h0a2.14,2.14,0,0,0,.32-.26h0a17.43,17.43,0,0,0,2.69-2.66c-.36.3-.73.66-1.12,1a12.26,12.26,0,0,1,1.12-1,2.47,2.47,0,0,0,.62-.81q-.3.41-.62.81c.14-.11.27-.22.41-.31-.08.56,1.06,0,.58.88-.53-.14-.62.42-1,.75h.11a1,1,0,0,0,.37,0l.13-.13L58,34.4a3.11,3.11,0,0,0,1.06-1.19A3.1,3.1,0,0,1,58,34.4,29.66,29.66,0,0,1,54.79,37H54l.13.33c-.9.67-.44-.32-1,0,.24-.13.22,0,.31,0-1.31.22-.49.61-1.2.81.47.21,1.32-.48,1.25.11-1.15.23-2.68.91-3.36.6a30.11,30.11,0,0,1-5.17,1.75c.12.08.17.16.06.24a14.2,14.2,0,0,0-2.88.37.26.26,0,0,1-.24.11.72.72,0,0,1,.24-.11.19.19,0,0,0,0-.09,21.32,21.32,0,0,0,2.8-.47q-.44-.2-.89-.35c.49,1.17-1.09,0-1.75.39.18.12.64.09.76.26A1.51,1.51,0,0,1,42,41v.07h-.26c-.53,0-1.06.07-1.59.07a5.15,5.15,0,0,0,3.94.61c.29-.16.57-.33.84-.5.69.27.62.91,1.46.91a2.65,2.65,0,0,0,.56-.07l-.48-.25a2,2,0,0,1,.65-.27,15.4,15.4,0,0,1-1.91-.5c.71-.74,2.31,0,3.53-.13-.08-.07-.49,0-.65-.14,1.67-.52,3.68-.38,5-.88.42-.5-1.15.29-1-.24.73-.12,1.29-.79,1.64-.55-.48-.36,1.44-.79,0-.63,2.13-1.37,4.68-2.62,6.67-4.46-.22,0-.33-.11-.34-.27a4,4,0,0,1-2.23,1.47c.21-.58,1.24-.63,1.23-.88-.3.11-.71.51-.92.3.29-.73.89-.7,1.28-1l-.08.31c1.34-1,1.4,0,2.31-1.57.06-.73-.25-.15-.61-.39.39-.25.63-1.6,1.22-1.77q-.22.48-.47.94c.48-.58.78-1.21,1.12-1.63a.38.38,0,0,0-.31.14c.37-.48.6-1.2,1-1.4l-.39-.3c.1.4-.25,1.41-.56,1.46-.33-.25.29-1.11.38-1.57a4.4,4.4,0,0,1-1.11,1.67A3.49,3.49,0,0,0,61,31l.27-.17c-.22,1.1-1.34,1.64-1.9,2.32.07-.21,0-.35-.08-.37h0c.34-.61.61-1.11,1-1l-.18-.41c.19-.16.75-.55.63-.11.25-.55.47-1.11.67-1.67-.55.45-1.73,1.18-1.63,1.71-.6.17.17-.72-.46-.62,1.12-.61.15-.71.79-1.62.26.73,1.17-.71,1.38-.58a3.85,3.85,0,0,1,.88-1.41c.28-.68.21-2.34.47-3.43-.2.42-.53,1-.86.93.29-.49.32-1.09-.07-1.21-.44.88-.26,1,0,1.21s.54.33.12,1.13c-.55.31-.76.72-1.17,1.48v-.06l-.1.25.1-.25a.68.68,0,0,0-.1-.2.68.68,0,0,1,.1.2,14.93,14.93,0,0,0,1-4.53l-.07,0,.07,0h0c.31-.2.71-.15.76-1.22.12.39.23.78.32,1.18-.28-1.32.3-.31.36-1.42-.09.15-.19.3-.29.45a2.11,2.11,0,0,1,0-1.1c.46.9.64-.86.8.81.06-.39.11-.78.14-1.17.2.26.43,0,.46.82a2.67,2.67,0,0,0-.34,1.2c.24-1.73.72,1.45,1.09-.19v.61c0-.08.07-.1.11-.06a5.66,5.66,0,0,0,.06.82c.13-.51.07-1.73.5-1.19.07.41.11.82.15,1.23.26-.31.39.06.59.06h.05A18.09,18.09,0,0,0,66.74,19.52ZM44.44,5.05A3.57,3.57,0,0,0,43,5.2c0-.16.56-.39,1-.37h0a.6.6,0,0,1,.51.22h0ZM49,5.16c-.27-.16-.1.23-.61.08l-.1-.08c.64.23.42-.23.73,0Zm3.34,1.71Zm.92.67Zm0-.31h0c-.21.08-.55-.14-.91-.4h0a6.89,6.89,0,0,0-.66-.42,6.87,6.87,0,0,1,.66.42c.27-.15.59.15.91.4a.25.25,0,0,0,.12-.09.25.25,0,0,1,0,.09ZM54.47,8Zm2.12,1.09Zm-30.7,9.22a1,1,0,0,1,.14-.5,4.17,4.17,0,0,0,.32-.41A5.55,5.55,0,0,0,25.89,18.31Zm1-2.1a3.45,3.45,0,0,0,.35-.38,6.55,6.55,0,0,1,.53-.74,6.37,6.37,0,0,1-.53.74l-.26.46v-.13a.23.23,0,0,0-.1,0l-.26.23.29-.23Zm.08.08-.06.14-.1.15Zm1,.39Zm.57-2c-.16.43.07.47.31.52l.27-.37-.27.37h0A13.39,13.39,0,0,0,28,16.68h0a.22.22,0,0,0-.21,0c.18.45-.82,1-1.28,1.29q.16-.66.39-1.32c0,.35.42.07.57,0l-.23-.35c.45.15.61-.41.88-1s.66-1.22,1.27-1.08c-.39.21-.39.68-.86.51Zm8.37-4.39Zm1.68-2.18L39,8h0l.33-.09L39,8h0l.39-.09a2.24,2.24,0,0,1,1-.09c-.6.06-1.21.18-1.81.3Zm0,0,.3-.1ZM46,9.74Zm.3.06ZM51,9.26a.17.17,0,0,1,.09-.09A.17.17,0,0,0,51,9.26Zm.16-.06.49.33Zm4.23,3h0l.28.27Zm3.32,4.88h0l.14.39ZM29,32.85h0a1.16,1.16,0,0,1,.65.45A.72.72,0,0,1,29,32.85Zm6.82,3-.55-.21Zm-.18,0a3.46,3.46,0,0,1,.46.09h0l.41.13h0a6.38,6.38,0,0,1,.68.32,3.83,3.83,0,0,1-1.56-.51Zm2.06,3.43h0a1.2,1.2,0,0,0,.47-.21,1.2,1.2,0,0,1-.48.24Zm10-4Zm-2,1.09c.23,0,.45.18.64.25h0c-.5-.1-.6.43-1.06,0a.52.52,0,0,1,.44-.22Zm2.72-.06c-.47.13-.94.26-1.47.38a19.65,19.65,0,0,0-2,.78h0l-.27.08h0a.29.29,0,0,0-.32-.06l.3-.1c.2-.32-.49-.13-.57-.37.34-.15,1.18,0,.89.06-.46.16-.19.27,0,.39a19.65,19.65,0,0,1,2-.78c.53-.12,1-.25,1.47-.38h0Zm6.22-.36.1-.08h0Zm1.92-6.33h0l-.11-.07-.4.58h0c.15-.2.29-.4.43-.62l-.2-.14.2.14h0l.13.09h0l.1-.15Zm2.45-11.51Zm.06.24-.06-.23h0Zm-.26,15c.13-.19.25-.38.37-.58h0a2.62,2.62,0,0,1-.34.63ZM59.34,19Zm0,.2Zm0-.15Zm.08-8.15c-.11-.25-.22-.5-.35-.75.17.1.69.74.35.74ZM60.61,13c-.1-.06-.11-.19-.15-.31a.83.83,0,0,0-.32-.15v-.11a.3.3,0,0,1,.3.26,4,4,0,0,1,.44.34c.31-.09,0-.81,0-1.07.18.34.17.76.61,1,0-.1.11-.09-.08-.33.16.17.32.33.47.5.13.87-.4.33-1-.13A.41.41,0,0,1,60.61,13Zm.54,4.47h0v-.06h0c.09,0,.22.14.34.19a1.9,1.9,0,0,0,.07-.48c-.16-.28-.27-.16-.43-.24.16.07.26,0,.43.23h0a1.75,1.75,0,0,1,.11.23c0,.3,0,.31-.18.25a.81.81,0,0,1-.07.16.81.81,0,0,0,.07-.16c-.12,0-.25-.14-.34-.16Zm.22-2.66q.07.29.13.58h0q-.06-.34-.13-.63Zm.14.57a3.47,3.47,0,0,0,0,.83,3.47,3.47,0,0,1,0-.83h0a.23.23,0,0,1,.23-.24ZM61.12,18h0l.08.15Zm.13,0h0Zm1.4,2.92c-.09-.35-.24-1,0-1a.48.48,0,0,0-.31-.08c.07-.08.1-.26,0-.66,0,.25,0,.41-.09.44-.19-1.56-.58-.25-.75-1.18a.08.08,0,0,1-.11,0h0l-.13-.49.07.25.17.15h0a1.37,1.37,0,0,1-.07-.46,2.24,2.24,0,0,0,.07.46h0a2.67,2.67,0,0,1,1.4,2v.07Zm.34-.41h0l.06-.15Zm.09-.2-.11.16h0Zm0-4.48c0,.17,0,.3-.13.35a.4.4,0,0,1,.13-.35,1.5,1.5,0,0,0-.52-1c-.16.18.12.36.19.61a2.07,2.07,0,0,1-.52-.69c.57.14.41-.12.73-.26.74.9.31,1.09,0,1.34Zm.37.64.22-.61.25.44Z" transform="translate(-0.03 -3.55)"/><path class="cls-1" d="M72.43,49.26l-.73.44a1.68,1.68,0,0,1,.45-.1C72.32,49.55,72.35,49.41,72.43,49.26Z" transform="translate(-0.03 -3.55)"/><path class="cls-1" d="M70.79,50.27h0l-.35.28a1.7,1.7,0,0,1,.43-.11C70.75,50.43,70.68,50.39,70.79,50.27Z" transform="translate(-0.03 -3.55)"/><path class="cls-1" d="M76.18,47.12a6.47,6.47,0,0,0,2-1.12c-.11-.07-.18-.19-.4-.11l-.28.38a3.36,3.36,0,0,0-1.74,1.14h.38C76.43,47.18,76.43,47,76.18,47.12Z" transform="translate(-0.03 -3.55)"/><path class="cls-1" d="M71.31,52c-.11.12-.29-.28-.51,0a9,9,0,0,1-1.64,1.22c-.24.23-.89,0-1.13.2a14.88,14.88,0,0,0-1.18.91c-.34.3-.49.5,0,.29a25.53,25.53,0,0,0,3.76-2c1-.73,1.83-1.51,2.75-2.3a6.75,6.75,0,0,1,.83-.5l-1.2.55C72.45,50.5,72.12,51.38,71.31,52Z" transform="translate(-0.03 -3.55)"/><path class="cls-1" d="M7.46,34l.3.14Z" transform="translate(-0.03 -3.55)"/><path class="cls-1" d="M68.17,52.78a5.2,5.2,0,0,1-2.23.65c.26,0,.23.12-.11.27l-.37-.11a3.9,3.9,0,0,1,2-.67l.36-.32a.41.41,0,0,1,.37.18l.42-.23a10.24,10.24,0,0,0-1.46.1,20.18,20.18,0,0,1-5.46,1.47c-.13.1-.21.21-.4.19a1.77,1.77,0,0,0-.45-.11H60l-.28,0h0c-.15.06-.1.12,0,.18a1.65,1.65,0,0,1,.28.13,1,1,0,0,1-.28-.13,1.74,1.74,0,0,0-.44-.1,3.18,3.18,0,0,1-.76,0,2.51,2.51,0,0,1,.76,0l.45-.08H57.72a1.51,1.51,0,0,1-1.14-.14H56.2L54.83,54c-.89-.11-1.79-.24-2.7-.41a41.9,41.9,0,0,1-8.3-2.35A49.41,49.41,0,0,1,36,47.13a87.58,87.58,0,0,1-7.88-5.71A87.67,87.67,0,0,0,20.59,36c-2.61-1.71-5.34-3.35-8.46-5a16.86,16.86,0,0,0-5-1.44A27,27,0,0,0,2,29.34a3.36,3.36,0,0,0-1.67.81A1.06,1.06,0,0,0,0,31,1.89,1.89,0,0,0,.7,32.12a5.57,5.57,0,0,0,2.93,1A12.1,12.1,0,0,1,7.48,34c-.36-.18-.46-.29-.37-.37a1.94,1.94,0,0,1,1.06,0,7.83,7.83,0,0,1,1.91.59,6,6,0,0,1,1.77,1.19,20.33,20.33,0,0,0,5.08,3.45,35.67,35.67,0,0,1,5.83,3.72c.88.74,1.92,1.37,3,2.18a58.66,58.66,0,0,0,8.86,5.81A64.59,64.59,0,0,0,44.95,55.1a20.42,20.42,0,0,0,5.67.68c1.26.13,2.57.49,3.59.58a18.93,18.93,0,0,0,2.25.06,17,17,0,0,0,2.11-.19c-.75,0-1.47.07-2.09.08s-1.33,0-2.15,0c-1.09-.07.81-.49,1.52-.57.31-.08.76.44,1.07.35a8.59,8.59,0,0,0,2.08-.3c.31-.11.29.33.45.28,1-.15,1.73-.8,2.37-.76h1.37a4.39,4.39,0,0,0,.81-.15l.51-.24a37.19,37.19,0,0,0,3.72-2.06Zm-16.53.84A1.83,1.83,0,0,1,53,54,2.43,2.43,0,0,1,51.64,53.62Z" transform="translate(-0.03 -3.55)"/><path class="cls-1" d="M65.84,53.43Z" transform="translate(-0.03 -3.55)"/></svg>